<svg width="74" height="74" viewBox="0 0 74 74" fill="none" xmlns="http://www.w3.org/2000/svg">
<g clip-path="url(#clip0_157_392)">
<path d="M35.4222 28.9361C35.9282 27.4181 38.0718 27.4181 38.5778 28.9361L41.5448 37.8463C42.1979 39.805 43.2982 41.5846 44.7585 43.0442C46.2189 44.5038 47.9992 45.6031 49.9582 46.2551L58.8638 49.2221C60.3818 49.7281 60.3818 51.8717 58.8638 52.3777L49.9536 55.3447C47.9949 55.9978 46.2153 57.0981 44.7557 58.5584C43.2961 60.0188 42.1968 61.7991 41.5448 63.7581L38.5778 72.6637C38.4687 72.9961 38.2574 73.2856 37.9741 73.4908C37.6908 73.696 37.3498 73.8065 37 73.8065C36.6502 73.8065 36.3092 73.696 36.0259 73.4908C35.7426 73.2856 35.5313 72.9961 35.4222 72.6637L32.4552 63.7535C31.8026 61.7953 30.703 60.016 29.2435 58.5564C27.7839 57.0969 26.0046 55.9973 24.0464 55.3447L15.1362 52.3777C14.8038 52.2686 14.5143 52.0573 14.3091 51.774C14.1039 51.4907 13.9934 51.1497 13.9934 50.7999C13.9934 50.4501 14.1039 50.1091 14.3091 49.8258C14.5143 49.5425 14.8038 49.3312 15.1362 49.2221L24.0464 46.2551C26.0046 45.6025 27.7839 44.5029 29.2435 43.0433C30.703 41.5838 31.8026 39.8045 32.4552 37.8463L35.4222 28.9361V28.9361ZM17.6524 5.4807C17.7184 5.28149 17.8454 5.10814 18.0155 4.98528C18.1857 4.86241 18.3902 4.79628 18.6 4.79628C18.8098 4.79628 19.0144 4.86241 19.1845 4.98528C19.3546 5.10814 19.4816 5.28149 19.5476 5.4807L21.3278 10.8259C22.1236 13.2087 23.9912 15.0763 26.374 15.8721L31.7192 17.6523C31.9184 17.7183 32.0918 17.8453 32.2146 18.0154C32.3375 18.1856 32.4036 18.3901 32.4036 18.5999C32.4036 18.8097 32.3375 19.0142 32.2146 19.1844C32.0918 19.3545 31.9184 19.4815 31.7192 19.5475L26.374 21.3277C25.1988 21.7192 24.131 22.3791 23.2551 23.255C22.3792 24.1309 21.7193 25.1987 21.3278 26.3739L19.5476 31.7191C19.4816 31.9183 19.3546 32.0917 19.1845 32.2145C19.0144 32.3374 18.8098 32.4035 18.6 32.4035C18.3902 32.4035 18.1857 32.3374 18.0155 32.2145C17.8454 32.0917 17.7184 31.9183 17.6524 31.7191L15.8722 26.3739C15.4807 25.1987 14.8208 24.1309 13.9449 23.255C13.069 22.3791 12.0012 21.7192 10.826 21.3277L5.48081 19.5475C5.2816 19.4815 5.10825 19.3545 4.98538 19.1844C4.86252 19.0142 4.79639 18.8097 4.79639 18.5999C4.79639 18.3901 4.86252 18.1856 4.98538 18.0154C5.10825 17.8453 5.2816 17.7183 5.48081 17.6523L10.826 15.8721C12.0012 15.4806 13.069 14.8207 13.9449 13.9448C14.8208 13.0689 15.4807 12.0011 15.8722 10.8259L17.6524 5.4807V5.4807ZM50.1698 0.655299C50.2152 0.52432 50.3003 0.410744 50.4132 0.330363C50.5262 0.249981 50.6614 0.206787 50.8 0.206787C50.9386 0.206787 51.0738 0.249981 51.1868 0.330363C51.2997 0.410744 51.3848 0.52432 51.4302 0.655299L52.617 4.2157C53.146 5.8073 54.3926 7.0539 55.9842 7.5829L59.5446 8.7697C59.6756 8.81511 59.7892 8.9002 59.8695 9.01314C59.9499 9.12609 59.9931 9.26127 59.9931 9.3999C59.9931 9.53853 59.9499 9.67371 59.8695 9.78665C59.7892 9.8996 59.6756 9.98469 59.5446 10.0301L55.9842 11.2169C55.1998 11.4778 54.4871 11.918 53.9026 12.5025C53.3181 13.087 52.8779 13.7997 52.617 14.5841L51.4302 18.1445C51.3848 18.2755 51.2997 18.3891 51.1868 18.4694C51.0738 18.5498 50.9386 18.593 50.8 18.593C50.6614 18.593 50.5262 18.5498 50.4132 18.4694C50.3003 18.3891 50.2152 18.2755 50.1698 18.1445L48.983 14.5841C48.7221 13.7997 48.2819 13.087 47.6974 12.5025C47.1129 11.918 46.4002 11.4778 45.6158 11.2169L42.06 10.0301C41.929 9.98469 41.8154 9.8996 41.7351 9.78665C41.6547 9.67371 41.6115 9.53853 41.6115 9.3999C41.6115 9.26127 41.6547 9.12609 41.7351 9.01314C41.8154 8.9002 41.929 8.81511 42.06 8.7697L45.6204 7.5829C47.212 7.0539 48.4586 5.8073 48.9876 4.2157L50.1698 0.659899V0.655299Z" fill="#AECA37"/>
</g>
<defs>
<clipPath id="clip0_157_392">
<rect width="73.6" height="73.6" fill="white" transform="translate(0.199951 0.199951)"/>
</clipPath>
</defs>
</svg>
