<svg width="92" height="92" viewBox="0 0 92 92" fill="none" xmlns="http://www.w3.org/2000/svg">
<rect x="0.5" y="0.5" width="91" height="91" rx="4.5" stroke="#AECA37"/>
<g clip-path="url(#clip0_157_395)">
<path d="M44.4222 37.9361C44.9282 36.4181 47.0718 36.4181 47.5778 37.9361L50.5448 46.8463C51.1979 48.805 52.2982 50.5846 53.7585 52.0442C55.2189 53.5038 56.9992 54.6031 58.9582 55.2551L67.8638 58.2221C69.3818 58.7281 69.3818 60.8717 67.8638 61.3777L58.9536 64.3447C56.9949 64.9978 55.2153 66.0981 53.7557 67.5584C52.2961 69.0188 51.1968 70.7991 50.5448 72.7581L47.5778 81.6637C47.4687 81.9961 47.2574 82.2856 46.9741 82.4908C46.6908 82.696 46.3498 82.8065 46 82.8065C45.6502 82.8065 45.3092 82.696 45.0259 82.4908C44.7426 82.2856 44.5313 81.9961 44.4222 81.6637L41.4552 72.7535C40.8026 70.7953 39.703 69.016 38.2435 67.5564C36.7839 66.0969 35.0046 64.9973 33.0464 64.3447L24.1362 61.3777C23.8038 61.2686 23.5143 61.0573 23.3091 60.774C23.1039 60.4907 22.9934 60.1497 22.9934 59.7999C22.9934 59.4501 23.1039 59.1091 23.3091 58.8258C23.5143 58.5425 23.8038 58.3312 24.1362 58.2221L33.0464 55.2551C35.0046 54.6025 36.7839 53.5029 38.2435 52.0433C39.703 50.5838 40.8026 48.8045 41.4552 46.8463L44.4222 37.9361V37.9361ZM26.6524 14.4807C26.7184 14.2815 26.8454 14.1081 27.0155 13.9853C27.1857 13.8624 27.3902 13.7963 27.6 13.7963C27.8098 13.7963 28.0144 13.8624 28.1845 13.9853C28.3546 14.1081 28.4816 14.2815 28.5476 14.4807L30.3278 19.8259C31.1236 22.2087 32.9912 24.0763 35.374 24.8721L40.7192 26.6523C40.9184 26.7183 41.0918 26.8453 41.2146 27.0154C41.3375 27.1856 41.4036 27.3901 41.4036 27.5999C41.4036 27.8097 41.3375 28.0142 41.2146 28.1844C41.0918 28.3545 40.9184 28.4815 40.7192 28.5475L35.374 30.3277C34.1988 30.7192 33.131 31.3791 32.2551 32.255C31.3792 33.1309 30.7193 34.1987 30.3278 35.3739L28.5476 40.7191C28.4816 40.9183 28.3546 41.0917 28.1845 41.2145C28.0144 41.3374 27.8098 41.4035 27.6 41.4035C27.3902 41.4035 27.1857 41.3374 27.0155 41.2145C26.8454 41.0917 26.7184 40.9183 26.6524 40.7191L24.8722 35.3739C24.4807 34.1987 23.8208 33.1309 22.9449 32.255C22.069 31.3791 21.0012 30.7192 19.826 30.3277L14.4808 28.5475C14.2816 28.4815 14.1083 28.3545 13.9854 28.1844C13.8625 28.0142 13.7964 27.8097 13.7964 27.5999C13.7964 27.3901 13.8625 27.1856 13.9854 27.0154C14.1083 26.8453 14.2816 26.7183 14.4808 26.6523L19.826 24.8721C21.0012 24.4806 22.069 23.8207 22.9449 22.9448C23.8208 22.0689 24.4807 21.0011 24.8722 19.8259L26.6524 14.4807V14.4807ZM59.1698 9.6553C59.2152 9.52432 59.3003 9.41074 59.4132 9.33036C59.5262 9.24998 59.6614 9.20679 59.8 9.20679C59.9386 9.20679 60.0738 9.24998 60.1868 9.33036C60.2997 9.41074 60.3848 9.52432 60.4302 9.6553L61.617 13.2157C62.146 14.8073 63.3926 16.0539 64.9842 16.5829L68.5446 17.7697C68.6756 17.8151 68.7892 17.9002 68.8695 18.0131C68.9499 18.1261 68.9931 18.2613 68.9931 18.3999C68.9931 18.5385 68.9499 18.6737 68.8695 18.7867C68.7892 18.8996 68.6756 18.9847 68.5446 19.0301L64.9842 20.2169C64.1998 20.4778 63.4871 20.918 62.9026 21.5025C62.3181 22.087 61.8779 22.7997 61.617 23.5841L60.4302 27.1445C60.3848 27.2755 60.2997 27.3891 60.1868 27.4694C60.0738 27.5498 59.9386 27.593 59.8 27.593C59.6614 27.593 59.5262 27.5498 59.4132 27.4694C59.3003 27.3891 59.2152 27.2755 59.1698 27.1445L57.983 23.5841C57.7221 22.7997 57.2819 22.087 56.6974 21.5025C56.1129 20.918 55.4002 20.4778 54.6158 20.2169L51.06 19.0301C50.929 18.9847 50.8154 18.8996 50.7351 18.7867C50.6547 18.6737 50.6115 18.5385 50.6115 18.3999C50.6115 18.2613 50.6547 18.1261 50.7351 18.0131C50.8154 17.9002 50.929 17.8151 51.06 17.7697L54.6204 16.5829C56.212 16.0539 57.4586 14.8073 57.9876 13.2157L59.1698 9.6599V9.6553Z" fill="#AECA37"/>
</g>
<defs>
<clipPath id="clip0_157_395">
<rect width="73.6" height="73.6" fill="white" transform="translate(9.19995 9.19995)"/>
</clipPath>
</defs>
</svg>
