<svg width="77" height="77" viewBox="0 0 77 77" fill="none" xmlns="http://www.w3.org/2000/svg">
<path d="M76.0529 60.1793L69.3 50.05V15.4C69.3 11.1573 65.835 7.69995 61.6 7.69995H15.4C11.1611 7.69995 7.7 11.1573 7.7 15.4V50.05L0.9471 60.1793C0 61.5999 0 62.42 0 63.5249V65.4499C0 67.3749 1.925 69.2999 3.84615 69.2999H73.1538C75.075 69.2999 77 67.3749 77 65.4499V63.5249C77 62.42 77 61.5999 76.0529 60.1793V60.1793ZM26.95 61.5999L29.26 57.7499H47.74L50.05 61.5999H26.95ZM61.6 46.2H15.4V15.4H61.6V46.2Z" fill="#AECA37"/>
</svg>
