<svg width="92" height="92" viewBox="0 0 92 92" fill="none" xmlns="http://www.w3.org/2000/svg">
<rect x="0.5" y="0.5" width="91" height="91" rx="4.5" stroke="#AECA37"/>
<path d="M84.0529 67.1793L77.3 57.05V22.4C77.3 18.1573 73.835 14.7 69.6 14.7H23.4C19.1611 14.7 15.7 18.1573 15.7 22.4V57.05L8.9471 67.1793C8 68.5999 8 69.42 8 70.5249V72.4499C8 74.3749 9.925 76.2999 11.8461 76.2999H81.1538C83.075 76.2999 85 74.3749 85 72.4499V70.5249C85 69.42 85 68.5999 84.0529 67.1793V67.1793ZM34.95 68.5999L37.26 64.7499H55.74L58.05 68.5999H34.95ZM69.6 53.2H23.4V22.4H69.6V53.2Z" fill="#AECA37"/>
</svg>
