<svg width="92" height="92" viewBox="0 0 92 92" fill="none" xmlns="http://www.w3.org/2000/svg">
<rect x="0.5" y="0.5" width="91" height="91" rx="4.5" stroke="#AECA37"/>
<path d="M41.375 73.75C41.375 73.75 36.75 73.75 36.75 69.125C36.75 64.5 41.375 50.625 59.875 50.625C78.375 50.625 83 64.5 83 69.125C83 73.75 78.375 73.75 78.375 73.75H41.375ZM59.875 46C63.5549 46 67.084 44.5382 69.6861 41.9361C72.2882 39.334 73.75 35.8049 73.75 32.125C73.75 28.4451 72.2882 24.916 69.6861 22.3139C67.084 19.7118 63.5549 18.25 59.875 18.25C56.1951 18.25 52.666 19.7118 50.0639 22.3139C47.4618 24.916 46 28.4451 46 32.125C46 35.8049 47.4618 39.334 50.0639 41.9361C52.666 44.5382 56.1951 46 59.875 46V46Z" fill="#AECA37"/>
<path fill-rule="evenodd" clip-rule="evenodd" d="M33.124 73.75C32.4384 72.3062 32.0964 70.7231 32.125 69.125C32.125 62.8582 35.27 56.4063 41.079 51.92C38.1795 51.0266 35.1588 50.5897 32.125 50.625C13.625 50.625 9 64.5 9 69.125C9 73.75 13.625 73.75 13.625 73.75H33.124Z" fill="#AECA37"/>
<path d="M29.8125 46C32.8791 46 35.82 44.7818 37.9884 42.6134C40.1568 40.445 41.375 37.5041 41.375 34.4375C41.375 31.3709 40.1568 28.43 37.9884 26.2616C35.82 24.0932 32.8791 22.875 29.8125 22.875C26.7459 22.875 23.805 24.0932 21.6366 26.2616C19.4682 28.43 18.25 31.3709 18.25 34.4375C18.25 37.5041 19.4682 40.445 21.6366 42.6134C23.805 44.7818 26.7459 46 29.8125 46V46Z" fill="#AECA37"/>
</svg>
