<svg width="92" height="92" viewBox="0 0 92 92" fill="none" xmlns="http://www.w3.org/2000/svg">
<rect x="0.5" y="0.5" width="91" height="91" rx="4.5" stroke="#AECA37"/>
<path d="M46.4999 10.2521C27.144 10.2521 11.4563 25.9255 11.4563 45.2603C11.4558 49.8582 12.3619 54.4112 14.1229 58.6593C15.8838 62.9073 18.4651 66.7672 21.7193 70.0184C24.9735 73.2697 28.8368 75.8486 33.0888 77.608C37.3407 79.3673 41.8978 80.2726 46.4999 80.2721C65.8486 80.2721 81.5399 64.5986 81.5399 45.2603C81.5399 25.9255 65.8486 10.2521 46.4999 10.2521V10.2521ZM46.4963 72.9751C42.8534 72.9751 39.2462 72.2582 35.8807 70.8654C32.5151 69.4726 29.4571 67.4312 26.8812 64.8576C24.3053 62.284 22.2619 59.2288 20.8679 55.8663C19.4738 52.5037 18.7563 48.8998 18.7563 45.2603C18.7563 41.6207 19.4738 38.0168 20.8679 34.6543C22.2619 31.2917 24.3053 28.2365 26.8812 25.6629C29.4571 23.0894 32.5151 21.0479 35.8807 19.6551C39.2462 18.2623 42.8534 17.5454 46.4963 17.5454C50.1392 17.5454 53.7464 18.2623 57.1119 19.6551C60.4775 21.0479 63.5355 23.0894 66.1114 25.6629C68.6873 28.2365 70.7307 31.2917 72.1247 34.6543C73.5188 38.0168 74.2363 41.6207 74.2363 45.2603C74.2363 48.8998 73.5188 52.5037 72.1247 55.8663C70.7307 59.2288 68.6873 62.284 66.1114 64.8576C63.5355 67.4312 60.4775 69.4726 57.1119 70.8654C53.7464 72.2582 50.1392 72.9751 46.4963 72.9751V72.9751ZM50.1499 42.817V23.3801H42.8499V46.1537L29.907 53.6221L33.557 59.9382L48.5768 51.27C49.035 50.9707 49.4162 50.5678 49.6895 50.0939C49.9628 49.62 50.1205 49.0884 50.1499 48.5423V47.9296L65.6259 32.7375C64.911 31.7478 64.1215 30.814 63.2644 29.9442L50.1499 42.817Z" fill="#AECA37"/>
</svg>
