<svg width="73" height="74" viewBox="0 0 73 74" fill="none" xmlns="http://www.w3.org/2000/svg">
<path d="M36.4999 2.25208C17.144 2.25208 1.4563 17.9255 1.4563 37.2603C1.45582 41.8582 2.36192 46.4112 4.12286 50.6593C5.8838 54.9073 8.46508 58.7672 11.7193 62.0184C14.9735 65.2697 18.8368 67.8486 23.0888 69.608C27.3407 71.3673 31.8978 72.2726 36.4999 72.2721C55.8486 72.2721 71.5399 56.5986 71.5399 37.2603C71.5399 17.9255 55.8486 2.25208 36.4999 2.25208V2.25208ZM36.4963 64.9751C32.8534 64.9751 29.2462 64.2582 25.8807 62.8654C22.5151 61.4726 19.4571 59.4312 16.8812 56.8576C14.3053 54.284 12.2619 51.2288 10.8679 47.8663C9.47381 44.5037 8.7563 40.8998 8.7563 37.2603C8.7563 33.6207 9.47381 30.0168 10.8679 26.6543C12.2619 23.2917 14.3053 20.2365 16.8812 17.6629C19.4571 15.0894 22.5151 13.0479 25.8807 11.6551C29.2462 10.2623 32.8534 9.54545 36.4963 9.54545C40.1392 9.54545 43.7464 10.2623 47.1119 11.6551C50.4775 13.0479 53.5355 15.0894 56.1114 17.6629C58.6873 20.2365 60.7307 23.2917 62.1247 26.6543C63.5188 30.0168 64.2363 33.6207 64.2363 37.2603C64.2363 40.8998 63.5188 44.5037 62.1247 47.8663C60.7307 51.2288 58.6873 54.284 56.1114 56.8576C53.5355 59.4312 50.4775 61.4726 47.1119 62.8654C43.7464 64.2582 40.1392 64.9751 36.4963 64.9751V64.9751ZM40.1499 34.817V15.3801H32.8499V38.1537L19.907 45.6221L23.557 51.9382L38.5768 43.27C39.035 42.9707 39.4162 42.5678 39.6895 42.0939C39.9628 41.62 40.1205 41.0884 40.1499 40.5423V39.9296L55.6259 24.7375C54.911 23.7478 54.1215 22.814 53.2644 21.9442L40.1499 34.817Z" fill="#AECA37"/>
</svg>
