<svg width="72" height="72" viewBox="0 0 72 72" fill="none" xmlns="http://www.w3.org/2000/svg">
<g clip-path="url(#clip0_157_474)">
<path d="M69.7213 65.1672L64.8001 50.4H59.4001L62.3989 64.8H9.60128L12.6001 50.4H7.20008L2.27528 65.1672C1.02608 68.9256 3.24008 72 7.20008 72H64.8001C68.7601 72 70.9741 68.9256 69.7213 65.1672ZM54.0001 18C54.0001 13.2261 52.1037 8.64773 48.728 5.27208C45.3523 1.89642 40.774 0 36.0001 0C31.2262 0 26.6478 1.89642 23.2722 5.27208C19.8965 8.64773 18.0001 13.2261 18.0001 18C18.0001 35.19 36.0001 54 36.0001 54C36.0001 54 54.0001 35.19 54.0001 18ZM26.2801 18.216C26.2801 12.8484 30.6289 8.4996 36.0001 8.4996C38.5775 8.4996 41.0494 9.52348 42.8719 11.346C44.6944 13.1685 45.7183 15.6404 45.7183 18.2178C45.7183 20.7952 44.6944 23.2671 42.8719 25.0896C41.0494 26.9121 38.5775 27.936 36.0001 27.936C33.4222 27.936 30.9499 26.9119 29.127 25.0891C27.3041 23.2662 26.2801 20.7939 26.2801 18.216V18.216Z" fill="#AECA37"/>
</g>
<defs>
<clipPath id="clip0_157_474">
<rect width="72" height="72" fill="white"/>
</clipPath>
</defs>
</svg>
