<svg width="92" height="92" viewBox="0 0 92 92" fill="none" xmlns="http://www.w3.org/2000/svg">
<rect x="0.5" y="0.5" width="91" height="91" rx="4.5" stroke="#AECA37"/>
<g clip-path="url(#clip0_366_1354)">
<path d="M79.7213 75.1672L74.8001 60.4H69.4001L72.3989 74.8H19.6013L22.6001 60.4H17.2001L12.2753 75.1672C11.0261 78.9256 13.2401 82 17.2001 82H74.8001C78.7601 82 80.9741 78.9256 79.7213 75.1672ZM64.0001 28C64.0001 23.2261 62.1037 18.6477 58.728 15.2721C55.3523 11.8964 50.774 10 46.0001 10C41.2262 10 36.6478 11.8964 33.2722 15.2721C29.8965 18.6477 28.0001 23.2261 28.0001 28C28.0001 45.19 46.0001 64 46.0001 64C46.0001 64 64.0001 45.19 64.0001 28ZM36.2801 28.216C36.2801 22.8484 40.6289 18.4996 46.0001 18.4996C48.5775 18.4996 51.0494 19.5235 52.8719 21.346C54.6944 23.1685 55.7183 25.6404 55.7183 28.2178C55.7183 30.7952 54.6944 33.2671 52.8719 35.0896C51.0494 36.9121 48.5775 37.936 46.0001 37.936C43.4222 37.936 40.9499 36.9119 39.127 35.0891C37.3041 33.2662 36.2801 30.7939 36.2801 28.216V28.216Z" fill="#AECA37"/>
</g>
<defs>
<clipPath id="clip0_366_1354">
<rect width="72" height="72" fill="white" transform="translate(10 10)"/>
</clipPath>
</defs>
</svg>
