<svg width="72" height="72" viewBox="0 0 72 72" fill="none" xmlns="http://www.w3.org/2000/svg">
<g clip-path="url(#clip0_157_476)">
<path fill-rule="evenodd" clip-rule="evenodd" d="M51.75 5.607C55.494 1.7595 64.8585 8.496 51.75 17.154C38.6415 8.496 48.006 1.7595 51.75 5.607ZM40.5 22.5C40.5 26.0804 39.0777 29.5142 36.5459 32.0459C34.0142 34.5777 30.5804 36 27 36C23.4196 36 19.9858 34.5777 17.4541 32.0459C14.9223 29.5142 13.5 26.0804 13.5 22.5C13.5 18.9196 14.9223 15.4858 17.4541 12.9541C19.9858 10.4223 23.4196 9 27 9C30.5804 9 34.0142 10.4223 36.5459 12.9541C39.0777 15.4858 40.5 18.9196 40.5 22.5V22.5ZM0 58.5C0 63 4.5 63 4.5 63H49.5C49.5 63 54 63 54 58.5C54 54 49.5 40.5 27 40.5C4.5 40.5 0 54 0 58.5ZM60.75 22.095C66.9915 15.6825 82.5975 26.91 60.75 41.3415C38.907 26.91 54.5085 15.6825 60.75 22.0995V22.095ZM67.5 9.7425C69.9975 7.1775 76.239 11.6685 67.5 17.442C58.761 11.6685 65.0025 7.1775 67.5 9.747V9.7425Z" fill="#AECA37"/>
</g>
<defs>
<clipPath id="clip0_157_476">
<rect width="72" height="72" fill="white"/>
</clipPath>
</defs>
</svg>
