<svg width="92" height="92" viewBox="0 0 92 92" fill="none" xmlns="http://www.w3.org/2000/svg">
<rect x="0.5" y="0.5" width="91" height="91" rx="4.5" stroke="#AECA37"/>
<g clip-path="url(#clip0_366_1355)">
<path fill-rule="evenodd" clip-rule="evenodd" d="M61.75 15.607C65.494 11.7595 74.8585 18.496 61.75 27.154C48.6415 18.496 58.006 11.7595 61.75 15.607ZM50.5 32.5C50.5 36.0804 49.0777 39.5142 46.5459 42.0459C44.0142 44.5777 40.5804 46 37 46C33.4196 46 29.9858 44.5777 27.4541 42.0459C24.9223 39.5142 23.5 36.0804 23.5 32.5C23.5 28.9196 24.9223 25.4858 27.4541 22.9541C29.9858 20.4223 33.4196 19 37 19C40.5804 19 44.0142 20.4223 46.5459 22.9541C49.0777 25.4858 50.5 28.9196 50.5 32.5V32.5ZM10 68.5C10 73 14.5 73 14.5 73H59.5C59.5 73 64 73 64 68.5C64 64 59.5 50.5 37 50.5C14.5 50.5 10 64 10 68.5ZM70.75 32.095C76.9915 25.6825 92.5975 36.91 70.75 51.3415C48.907 36.91 64.5085 25.6825 70.75 32.0995V32.095ZM77.5 19.7425C79.9975 17.1775 86.239 21.6685 77.5 27.442C68.761 21.6685 75.0025 17.1775 77.5 19.747V19.7425Z" fill="#AECA37"/>
</g>
<defs>
<clipPath id="clip0_366_1355">
<rect width="72" height="72" fill="white" transform="translate(10 10)"/>
</clipPath>
</defs>
</svg>
