<svg width="60" height="60" viewBox="0 0 60 60" fill="none" xmlns="http://www.w3.org/2000/svg">
<g clip-path="url(#clip0_398_1363)">
<path fill-rule="evenodd" clip-rule="evenodd" d="M33.9072 20.5615C34.8235 19.3785 35.5182 17.7066 35.2669 16C33.7692 16.1041 32.0186 17.0623 30.9972 18.3113C30.066 19.443 29.3008 21.1265 29.5996 22.7604C31.2369 22.8116 32.9268 21.8303 33.9072 20.5615ZM42 36.615C41.3448 38.0754 41.0295 38.728 40.1854 40.0216C39.0079 41.8274 37.3476 44.0759 35.2883 44.0924C33.4605 44.1122 32.9892 42.8946 30.5078 42.9095C28.0264 42.9227 27.5091 44.1155 25.678 44.0973C23.6203 44.0792 22.0471 42.0504 20.8696 40.2446C17.5753 35.1991 17.2288 29.2763 19.2602 26.1257C20.7054 23.8888 22.9848 22.5803 25.1262 22.5803C27.3055 22.5803 28.6767 23.7831 30.4815 23.7831C32.2321 23.7831 33.2979 22.577 35.8187 22.577C37.727 22.577 39.7485 23.6228 41.1871 25.4269C36.4707 28.0273 37.2343 34.8026 42 36.615Z" fill="#FAB414"/>
</g>
<rect x="0.5" y="0.5" width="59" height="59" rx="4.5" stroke="#FAB414"/>
<defs>
<clipPath id="clip0_398_1363">
<rect width="24" height="28.0976" fill="white" transform="translate(18 16)"/>
</clipPath>
</defs>
</svg>
