<svg width="16" height="8" viewBox="0 0 16 8" fill="none" xmlns="http://www.w3.org/2000/svg">
<g clip-path="url(#clip0_144_1274)">
<path d="M16 3.93044V7.0087C16 7.42609 15.7391 7.77392 15.3043 7.77392C14.8696 7.77392 14.6087 7.42609 14.6087 7.0087V4.71305H2.73043L4.50435 6.46957C4.8 6.76522 4.78261 7.25218 4.46957 7.56522C4.31304 7.72174 4.10435 7.79131 3.89565 7.79131C3.70435 7.79131 3.49565 7.72174 3.33913 7.56522L0.208696 4.48696C0.0869565 4.34783 0 4.13913 0 3.93044C0 3.72174 0.0869565 3.53044 0.226087 3.39131L3.33913 0.313048C3.63478 0.0173956 4.13913 0.0173956 4.43478 0.313048C4.73043 0.6087 4.73043 1.09566 4.41739 1.4087L2.64348 3.16522H15.2C15.4087 3.16522 15.6348 3.25218 15.7739 3.39131C15.913 3.53044 16 3.73913 16 3.93044Z" fill="#FAB414"/>
</g>
<defs>
<clipPath id="clip0_144_1274">
<rect width="16" height="8" fill="white"/>
</clipPath>
</defs>
</svg>
