<svg width="32" height="32" viewBox="0 0 32 32" fill="none" xmlns="http://www.w3.org/2000/svg">
<path d="M31.9304 9.49574L28.2087 21.2175C27.9304 22.0523 27.2 22.6088 26.3304 22.6088H11.9652C11.1304 22.6088 10.3304 22.087 10.0522 21.3218L4.55652 6.60878H1.3913C0.626087 6.60878 0 5.98269 0 5.21748C0 4.45226 0.626087 3.82617 1.3913 3.82617H5.53043C6.12174 3.82617 6.64348 4.20878 6.85217 4.7653L12.5217 19.8262H25.7391L28.6957 10.4349H12.313C11.5478 10.4349 10.9217 9.80878 10.9217 9.04356C10.9217 8.27835 11.5478 7.65226 12.313 7.65226H30.6087C31.0609 7.65226 31.4783 7.89574 31.7217 8.24356C32 8.59139 32.0696 9.07835 31.9304 9.49574ZM12.6609 24.4523C12.0696 24.4523 11.4783 24.6957 11.0609 25.1131C10.6435 25.5305 10.4 26.1218 10.4 26.7131C10.4 27.3044 10.6435 27.8957 11.0609 28.3131C11.4783 28.7305 12.0696 28.974 12.6609 28.974C13.2522 28.974 13.8435 28.7305 14.2609 28.3131C14.6783 27.8957 14.9217 27.3044 14.9217 26.7131C14.9217 26.1218 14.6783 25.5305 14.2609 25.1131C13.8435 24.6957 13.2522 24.4523 12.6609 24.4523ZM25.1478 24.4523C24.5565 24.4523 23.9652 24.6957 23.5478 25.1131C23.1304 25.5305 22.887 26.1218 22.887 26.7131C22.887 27.3044 23.1304 27.8957 23.5478 28.3131C23.9652 28.7305 24.5565 28.974 25.1478 28.974C25.7391 28.974 26.3304 28.7305 26.7478 28.3131C27.1652 27.8957 27.4087 27.3044 27.4087 26.7131C27.4087 26.1218 27.1652 25.5305 26.7478 25.1131C26.3304 24.6957 25.7391 24.4523 25.1478 24.4523Z" fill="#FAB414"/>
</svg>
