<svg width="60" height="60" viewBox="0 0 60 60" fill="none" xmlns="http://www.w3.org/2000/svg">
<g clip-path="url(#clip0_398_1361)">
<path d="M41.3175 27.837C41.4574 28.6424 41.5272 29.4585 41.526 30.276C41.526 33.927 40.221 37.014 37.95 39.1035H37.953C35.967 40.938 33.237 42 30 42C26.8174 42 23.7652 40.7357 21.5147 38.4853C19.2643 36.2348 18 33.1826 18 30C18 26.8174 19.2643 23.7652 21.5147 21.5147C23.7652 19.2643 26.8174 18 30 18C32.9789 17.9651 35.8558 19.0842 38.028 21.123L34.602 24.549C33.3636 23.3685 31.7107 22.722 30 22.749C26.8695 22.749 24.21 24.861 23.262 27.705C22.7594 29.1953 22.7594 30.8092 23.262 32.2995H23.2665C24.219 35.139 26.874 37.251 30.0045 37.251C31.6215 37.251 33.0105 36.837 34.0875 36.105H34.083C34.7084 35.6907 35.2433 35.154 35.6555 34.5273C36.0678 33.9006 36.3487 33.1968 36.4815 32.4585H30V27.8385H41.3175V27.837Z" fill="#FAB414"/>
</g>
<rect x="0.5" y="0.5" width="59" height="59" rx="4.5" stroke="#FAB414"/>
<defs>
<clipPath id="clip0_398_1361">
<rect width="24" height="24" fill="white" transform="translate(18 18)"/>
</clipPath>
</defs>
</svg>
