<svg width="20" height="20" viewBox="0 0 20 20" fill="none" xmlns="http://www.w3.org/2000/svg">
<path d="M14.09 2.233C12.95 1.411 11.518 1 9.79401 1C8.48301 1 7.37601 1.289 6.47701 1.868C5.05001 2.774 4.29201 4.313 4.20001 6.483H7.50701C7.50701 5.85 7.69201 5.243 8.06001 4.655C8.42901 4.069 9.05501 3.776 9.93801 3.776C10.836 3.776 11.455 4.014 11.792 4.489C12.131 4.966 12.3 5.493 12.3 6.071C12.3 6.575 12.048 7.036 11.743 7.454C11.5613 7.71349 11.3379 7.94122 11.082 8.128C11.082 8.128 9.28901 9.278 8.50201 10.202C8.04601 10.737 8.00501 11.54 7.96401 12.69C7.96201 12.772 7.99301 12.942 8.27901 12.942H10.85C11.106 12.942 11.159 12.753 11.162 12.668C11.18 12.25 11.226 12.035 11.303 11.793C11.447 11.336 11.841 10.938 12.282 10.594L13.192 9.967C14.014 9.326 14.669 8.801 14.959 8.389C15.453 7.713 15.801 6.879 15.801 5.889C15.8 4.274 15.23 3.057 14.09 2.233ZM9.74101 14.924C8.60201 14.889 7.66201 15.678 7.62601 16.914C7.59101 18.148 8.48401 18.965 9.62401 18.998C10.813 19.033 11.728 18.271 11.765 17.035C11.799 15.799 10.931 14.959 9.74101 14.924Z" fill="#FAB414"/>
</svg>
