<svg width="36" height="32" viewBox="0 0 36 32" fill="none" xmlns="http://www.w3.org/2000/svg">
<path d="M26.4592 9.77779C24.9953 8.30169 23.0548 7.40076 20.9883 7.23775C18.9217 7.07473 16.8654 7.66038 15.1906 8.8889C13.4335 7.57451 11.2466 6.9785 9.0701 7.2209C6.89362 7.4633 4.88929 8.52609 3.46074 10.1953C2.03219 11.8644 1.28553 14.016 1.37112 16.2167C1.45671 18.4174 2.3682 20.5037 3.92202 22.0556L12.4977 30.6945C13.2159 31.4053 14.183 31.8036 15.1906 31.8036C16.1982 31.8036 17.1653 31.4053 17.8834 30.6945L26.4592 22.0556C28.0715 20.424 28.9765 18.2171 28.9765 15.9167C28.9765 13.6163 28.0715 11.4094 26.4592 9.77779ZM24.512 20.1389L15.9363 28.7639C15.8387 28.863 15.7226 28.9417 15.5946 28.9954C15.4666 29.049 15.3293 29.0767 15.1906 29.0767C15.0519 29.0767 14.9146 29.049 14.7866 28.9954C14.6586 28.9417 14.5425 28.863 14.4449 28.7639L5.86916 20.0972C4.78616 18.9838 4.17972 17.4882 4.17972 15.9306C4.17972 14.373 4.78616 12.8773 5.86916 11.7639C6.97276 10.6681 8.46117 10.0536 10.012 10.0536C11.5629 10.0536 13.0513 10.6681 14.1549 11.7639C14.2833 11.8941 14.436 11.9974 14.6043 12.0679C14.7726 12.1384 14.953 12.1747 15.1354 12.1747C15.3177 12.1747 15.4982 12.1384 15.6664 12.0679C15.8347 11.9974 15.9874 11.8941 16.1158 11.7639C17.2194 10.6681 18.7078 10.0536 20.2587 10.0536C21.8095 10.0536 23.2979 10.6681 24.4015 11.7639C25.4994 12.8627 26.1258 14.3503 26.1464 15.9079C26.1671 17.4655 25.5804 18.9694 24.512 20.0972V20.1389Z" fill="#FAB414"/>
<circle cx="28.5" cy="7.5" r="7.5" fill="#FA4B14"/>
<path d="M24.38 4.6V3.77H26.26V11H25.34V4.6H24.38ZM27.8231 7.31C27.8231 6.16333 28.0098 5.27 28.3831 4.63C28.7565 3.98333 29.4098 3.66 30.3431 3.66C31.2698 3.66 31.9198 3.98333 32.2931 4.63C32.6665 5.27 32.8531 6.16333 32.8531 7.31C32.8531 8.47667 32.6665 9.38333 32.2931 10.03C31.9198 10.6767 31.2698 11 30.3431 11C29.4098 11 28.7565 10.6767 28.3831 10.03C28.0098 9.38333 27.8231 8.47667 27.8231 7.31ZM31.9531 7.31C31.9531 6.73 31.9131 6.24 31.8331 5.84C31.7598 5.43333 31.6031 5.10667 31.3631 4.86C31.1298 4.61333 30.7898 4.49 30.3431 4.49C29.8898 4.49 29.5431 4.61333 29.3031 4.86C29.0698 5.10667 28.9131 5.43333 28.8331 5.84C28.7598 6.24 28.7231 6.73 28.7231 7.31C28.7231 7.91 28.7598 8.41333 28.8331 8.82C28.9131 9.22667 29.0698 9.55333 29.3031 9.8C29.5431 10.0467 29.8898 10.17 30.3431 10.17C30.7898 10.17 31.1298 10.0467 31.3631 9.8C31.6031 9.55333 31.7598 9.22667 31.8331 8.82C31.9131 8.41333 31.9531 7.91 31.9531 7.31Z" fill="white"/>
</svg>
