<svg width="24" height="16" viewBox="0 0 24 16" fill="none" xmlns="http://www.w3.org/2000/svg">
<path d="M22.5913 6.87149H10.9043C10.1217 6.87149 9.49565 6.23503 9.49565 5.43944V1.8593C9.49565 1.06371 10.1217 0.427246 10.9043 0.427246H22.5652C23.3478 0.427246 23.9739 1.06371 23.9739 1.8593V5.43944C24 6.23503 23.3739 6.87149 22.5913 6.87149ZM11.5826 4.74993H21.913V2.54881H11.5826V4.74993ZM22.5913 15.8086H10.9043C10.1217 15.8086 9.49565 15.1721 9.49565 14.3765V10.7964C9.49565 10.0008 10.1217 9.36433 10.9043 9.36433H22.5652C23.3478 9.36433 23.9739 10.0008 23.9739 10.7964V14.3765C24 15.1721 23.3739 15.8086 22.5913 15.8086ZM11.5826 13.687H21.913V11.4859H11.5826V13.687ZM6.18261 6.87149H1.46087C0.652174 6.87149 0 6.20851 0 5.3864V1.91234C0 1.09023 0.652174 0.427246 1.46087 0.427246H6.18261C6.99131 0.427246 7.64348 1.09023 7.64348 1.91234V5.41292C7.64348 6.20851 6.99131 6.87149 6.18261 6.87149ZM2.08696 4.74993H5.55652V2.54881H2.08696V4.74993ZM6.18261 15.8086H1.46087C0.652174 15.8086 0 15.1456 0 14.3235V10.8229C0 10.0008 0.652174 9.33781 1.46087 9.33781H6.18261C6.99131 9.33781 7.64348 10.0008 7.64348 10.8229V14.3235C7.64348 15.1456 6.99131 15.8086 6.18261 15.8086ZM2.08696 13.687H5.55652V11.4859H2.08696V13.687Z" fill="#23280B"/>
</svg>
