<svg width="23" height="17" viewBox="0 0 23 17" fill="none" xmlns="http://www.w3.org/2000/svg">
<g clip-path="url(#clip0_325_110)">
<path fill-rule="evenodd" clip-rule="evenodd" d="M21.5625 14.1667C21.5625 14.3105 21.5345 14.4465 21.4942 14.5761L15.0938 7.79167L21.5625 2.83333V14.1667ZM2.55587 15.5451L9.04187 8.73374L11.5 10.5648L13.8518 8.72241L20.4441 15.5451C20.3413 15.5685 2.65866 15.5685 2.55587 15.5451ZM1.4375 14.1667V2.83333L7.90625 7.79167L1.50578 14.5761C1.46553 14.4465 1.4375 14.3105 1.4375 14.1667ZM20.8438 1.41667L11.5 8.5L2.15625 1.41667H20.8438ZM20.125 0H2.875C1.28728 0 0 1.26862 0 2.83333V14.1667C0 15.7314 1.28728 17 2.875 17H20.125C21.7127 17 23 15.7314 23 14.1667V2.83333C23 1.26862 21.7127 0 20.125 0Z" fill="#23280B"/>
</g>
<defs>
<clipPath id="clip0_325_110">
<rect width="23" height="17" fill="white"/>
</clipPath>
</defs>
</svg>
