<svg width="29" height="29" viewBox="0 0 29 29" fill="none" xmlns="http://www.w3.org/2000/svg">
<path d="M24.1666 4.83337H4.83329C3.49204 4.83337 2.42871 5.90879 2.42871 7.25004L2.41663 21.75C2.41663 23.0913 3.49204 24.1667 4.83329 24.1667H24.1666C25.5079 24.1667 26.5833 23.0913 26.5833 21.75V7.25004C26.5833 5.90879 25.5079 4.83337 24.1666 4.83337ZM10.2708 18.125H8.82079L5.73954 13.8959V18.125H4.22913V10.875H5.73954L8.76038 15.1042V10.875H10.2708V18.125ZM16.3125 12.3975H13.2916V13.7509H16.3125V15.2734H13.2916V16.6146H16.3125V18.125H11.4791V10.875H16.3125V12.3975ZM24.7708 16.9167C24.7708 17.5813 24.227 18.125 23.5625 18.125H18.7291C18.0645 18.125 17.5208 17.5813 17.5208 16.9167V10.875H19.0312V16.3246H20.3966V12.0713H21.907V16.3125H23.2604V10.875H24.7708V16.9167Z" fill="#9FAF38"/>
</svg>
