<svg width="29" height="32" viewBox="0 0 29 32" fill="none" xmlns="http://www.w3.org/2000/svg">
<g clip-path="url(#clip0_157_2763)">
<path d="M25.5651 25.7609C23.526 25.7609 22.7347 24.5739 22.7347 17.1174C22.7347 11.274 20.0869 7.62178 15.5216 7.07395V5.187C15.5216 4.51743 14.9738 3.9696 14.3042 3.9696C13.6347 3.9696 13.0869 4.51743 13.0869 5.187V7.01308C8.21729 7.40873 5.38685 11.1218 5.38685 17.087C5.38685 24.5435 4.50424 25.7305 2.43468 25.7305C1.79555 25.7609 1.21729 26.2174 1.21729 26.887C1.21729 27.587 1.76511 28.0435 2.43468 28.0435H10.3477C10.439 28.9566 10.7129 30.0826 11.4434 30.874C12.0825 31.574 12.9347 31.9696 13.939 31.9696C14.9434 31.9696 15.7955 31.5435 16.4347 30.874C17.1955 30.0522 17.4999 28.9566 17.6216 28.0435H25.5651C26.2347 28.0435 26.7825 27.587 26.7825 26.887C26.7825 26.2174 26.2347 25.7609 25.5651 25.7609ZM14.6695 29.2305C14.5477 29.3522 14.3651 29.5348 13.939 29.5348C13.5434 29.5348 13.3608 29.3522 13.239 29.2305C13.026 28.9566 12.8738 28.6522 12.8129 28.0435H13.8477C13.9086 28.0435 13.9695 28.0435 14.0303 28.0435C14.0912 28.0435 14.1521 28.0435 14.2129 28.0435H15.2173C15.0955 28.6522 14.9434 28.9566 14.6695 29.2305ZM14.1825 25.6087C14.1216 25.6087 14.0608 25.6087 13.9999 25.6087C13.939 25.6087 13.8782 25.6087 13.8173 25.6087H6.63468C7.76076 23.4783 7.76076 20.1609 7.76076 17.0566C7.76076 12.0957 9.92163 9.4783 13.8173 9.4783H14.1521C18.0477 9.4783 20.2086 12.0957 20.2086 17.0566C20.2086 20.1609 20.2086 23.4783 21.3347 25.6087H14.1825ZM18.5042 14.8044C18.5347 15.3826 18.0782 15.9 17.4999 15.9305C17.4695 15.9305 17.4695 15.9305 17.439 15.9305C16.8912 15.9305 16.4042 15.5044 16.3738 14.9261C16.2825 13.5566 15.2173 13.0696 15.0955 13.0087C14.5477 12.7653 14.3042 12.1566 14.5173 11.6087C14.7303 11.0609 15.339 10.8174 15.8869 11.0305C16.0086 11.0913 18.3521 12.0653 18.5042 14.8044Z" fill="#FAB414"/>
</g>
<circle cx="21.5" cy="7.5" r="7.5" fill="#FA4B14"/>
<path d="M24.084 4.176L20.748 12H19.644L23.028 4.284H18.396V3.348H24.084V4.176Z" fill="white"/>
<defs>
<clipPath id="clip0_157_2763">
<rect width="28" height="28" fill="white" transform="translate(0 4)"/>
</clipPath>
</defs>
</svg>
