<svg width="16" height="16" viewBox="0 0 16 16" fill="none" xmlns="http://www.w3.org/2000/svg">
<g clip-path="url(#clip0_144_1285)">
<path d="M3.19999 6.4V4.8C3.19999 3.52696 3.7057 2.30606 4.60588 1.40589C5.50605 0.505713 6.72695 0 7.99999 0C9.27303 0 10.4939 0.505713 11.3941 1.40589C12.2943 2.30606 12.8 3.52696 12.8 4.8V6.4H13.6C14.0243 6.4 14.4313 6.56857 14.7314 6.86863C15.0314 7.16869 15.2 7.57565 15.2 8V14.4C15.2 14.8243 15.0314 15.2313 14.7314 15.5314C14.4313 15.8314 14.0243 16 13.6 16H2.39999C1.97564 16 1.56868 15.8314 1.26862 15.5314C0.968559 15.2313 0.799988 14.8243 0.799988 14.4V8C0.799988 7.12 1.51999 6.4 2.39999 6.4H3.19999ZM7.19999 11.784V13.6H8.79999V11.784C9.10501 11.6079 9.34341 11.3361 9.4782 11.0107C9.61298 10.6852 9.63663 10.3245 9.54547 9.98425C9.45431 9.64404 9.25344 9.34341 8.97401 9.12899C8.69458 8.91458 8.3522 8.79836 7.99999 8.79836C7.64777 8.79836 7.3054 8.91458 7.02597 9.12899C6.74654 9.34341 6.54567 9.64404 6.45451 9.98425C6.36335 10.3245 6.38699 10.6852 6.52178 11.0107C6.65657 11.3361 6.89496 11.6079 7.19999 11.784ZM5.59999 4.8V6.4H10.4V4.8C10.4 4.16348 10.1471 3.55303 9.69704 3.10294C9.24696 2.65286 8.63651 2.4 7.99999 2.4C7.36347 2.4 6.75302 2.65286 6.30293 3.10294C5.85284 3.55303 5.59999 4.16348 5.59999 4.8Z" fill="#FAB414"/>
</g>
<defs>
<clipPath id="clip0_144_1285">
<rect width="16" height="16" fill="white"/>
</clipPath>
</defs>
</svg>
