<svg width="24" height="24" viewBox="0 0 24 24" fill="none" xmlns="http://www.w3.org/2000/svg">
<circle cx="12" cy="12" r="12" fill="#D9D9D9" fill-opacity="0.5"/>
<g clip-path="url(#clip0_342_1268)">
<path d="M12 9.06104L11.4623 8.50829C10.2 7.21079 7.88554 7.65854 7.05004 9.28979C6.65779 10.057 6.56929 11.1648 7.28554 12.5785C7.97554 13.9398 9.41104 15.5703 12 17.3463C14.589 15.5703 16.0238 13.9398 16.7145 12.5785C17.4308 11.164 17.343 10.057 16.95 9.28979C16.1145 7.65854 13.8 7.21004 12.5378 8.50754L12 9.06104ZM12 18.25C0.500293 10.651 8.45929 4.72004 11.868 7.85729C11.913 7.89854 11.9573 7.94129 12 7.98554C12.0424 7.94133 12.0864 7.89879 12.132 7.85804C15.54 4.71854 23.4998 10.6503 12 18.25Z" fill="#FA4B14"/>
</g>
<defs>
<clipPath id="clip0_342_1268">
<rect width="12" height="12" fill="white" transform="translate(6 7)"/>
</clipPath>
</defs>
</svg>
