<svg width="47" height="48" viewBox="0 0 47 48" fill="none" xmlns="http://www.w3.org/2000/svg">
<g clip-path="url(#clip0_174_1233)">
<path d="M2.58773 25.8779L10.6478 33.9753C11.5643 34.896 12.8009 35.4228 14.0885 35.435L32.9744 35.6139C35.657 35.6394 37.8194 33.4869 37.8064 30.8042L37.7368 16.4784C37.7238 13.7956 35.5403 11.602 32.8576 11.5766L13.9718 11.3977C12.6841 11.3855 11.4526 11.8889 10.5449 12.7924L2.5681 20.7324C1.14781 22.1354 1.15902 24.4426 2.58773 25.8779ZM13.7434 25.1251C12.7983 26.0658 11.2639 26.0513 10.3096 25.0926C9.35532 24.1339 9.34786 22.5994 10.2929 21.6587C11.238 20.718 12.7724 20.7325 13.7267 21.6912C14.681 22.6499 14.6884 24.1844 13.7434 25.1251Z" fill="#FA4B14" fill-opacity="0.75"/>
<path d="M16.522 22.059C16.558 21.501 16.771 21.066 17.161 20.754C17.557 20.442 18.061 20.286 18.673 20.286C19.093 20.286 19.456 20.361 19.762 20.511C20.068 20.661 20.299 20.865 20.455 21.123C20.611 21.381 20.689 21.672 20.689 21.996C20.689 22.368 20.59 22.686 20.392 22.95C20.194 23.214 19.957 23.391 19.681 23.481V23.517C20.035 23.625 20.311 23.823 20.509 24.111C20.707 24.393 20.806 24.756 20.806 25.2C20.806 25.554 20.725 25.869 20.563 26.145C20.401 26.421 20.161 26.64 19.843 26.802C19.525 26.958 19.144 27.036 18.7 27.036C18.052 27.036 17.518 26.871 17.098 26.541C16.684 26.205 16.462 25.725 16.432 25.101H17.422C17.446 25.419 17.569 25.68 17.791 25.884C18.013 26.082 18.313 26.181 18.691 26.181C19.057 26.181 19.339 26.082 19.537 25.884C19.735 25.68 19.834 25.419 19.834 25.101C19.834 24.681 19.699 24.384 19.429 24.21C19.165 24.03 18.757 23.94 18.205 23.94H17.971V23.094H18.214C18.7 23.088 19.069 23.007 19.321 22.851C19.579 22.695 19.708 22.449 19.708 22.113C19.708 21.825 19.615 21.597 19.429 21.429C19.243 21.255 18.979 21.168 18.637 21.168C18.301 21.168 18.04 21.255 17.854 21.429C17.668 21.597 17.557 21.807 17.521 22.059H16.522ZM22.6038 23.634C22.6038 22.596 22.7778 21.786 23.1258 21.204C23.4798 20.616 24.0858 20.322 24.9438 20.322C25.8018 20.322 26.4048 20.616 26.7528 21.204C27.1068 21.786 27.2838 22.596 27.2838 23.634C27.2838 24.684 27.1068 25.506 26.7528 26.1C26.4048 26.688 25.8018 26.982 24.9438 26.982C24.0858 26.982 23.4798 26.688 23.1258 26.1C22.7778 25.506 22.6038 24.684 22.6038 23.634ZM26.2758 23.634C26.2758 23.148 26.2428 22.737 26.1768 22.401C26.1168 22.065 25.9908 21.792 25.7988 21.582C25.6068 21.366 25.3218 21.258 24.9438 21.258C24.5658 21.258 24.2808 21.366 24.0888 21.582C23.8968 21.792 23.7678 22.065 23.7018 22.401C23.6418 22.737 23.6118 23.148 23.6118 23.634C23.6118 24.138 23.6418 24.561 23.7018 24.903C23.7618 25.245 23.8878 25.521 24.0798 25.731C24.2778 25.941 24.5658 26.046 24.9438 26.046C25.3218 26.046 25.6068 25.941 25.7988 25.731C25.9968 25.521 26.1258 25.245 26.1858 24.903C26.2458 24.561 26.2758 24.138 26.2758 23.634ZM28.9274 22.023C28.9274 21.585 29.0534 21.243 29.3054 20.997C29.5634 20.745 29.8934 20.619 30.2954 20.619C30.6974 20.619 31.0244 20.745 31.2764 20.997C31.5344 21.243 31.6634 21.585 31.6634 22.023C31.6634 22.461 31.5344 22.806 31.2764 23.058C31.0244 23.31 30.6974 23.436 30.2954 23.436C29.8934 23.436 29.5634 23.31 29.3054 23.058C29.0534 22.806 28.9274 22.461 28.9274 22.023ZM34.4174 20.736L30.8264 27H29.8184L33.4094 20.736H34.4174ZM30.2954 21.24C29.9174 21.24 29.7284 21.501 29.7284 22.023C29.7284 22.551 29.9174 22.815 30.2954 22.815C30.4754 22.815 30.6134 22.752 30.7094 22.626C30.8114 22.494 30.8624 22.293 30.8624 22.023C30.8624 21.501 30.6734 21.24 30.2954 21.24ZM32.5904 25.704C32.5904 25.266 32.7164 24.924 32.9684 24.678C33.2264 24.426 33.5564 24.3 33.9584 24.3C34.3544 24.3 34.6784 24.426 34.9304 24.678C35.1884 24.924 35.3174 25.266 35.3174 25.704C35.3174 26.142 35.1884 26.487 34.9304 26.739C34.6784 26.991 34.3544 27.117 33.9584 27.117C33.5564 27.117 33.2264 26.991 32.9684 26.739C32.7164 26.487 32.5904 26.142 32.5904 25.704ZM33.9494 24.921C33.5714 24.921 33.3824 25.182 33.3824 25.704C33.3824 26.226 33.5714 26.487 33.9494 26.487C34.3274 26.487 34.5164 26.226 34.5164 25.704C34.5164 25.182 34.3274 24.921 33.9494 24.921Z" fill="#FFFEFF"/>
</g>
<defs>
<clipPath id="clip0_174_1233">
<rect width="32.9965" height="33.4728" fill="white" transform="translate(0 23.2781) rotate(-44.8677)"/>
</clipPath>
</defs>
</svg>
