<svg width="32" height="32" viewBox="0 0 32 32" fill="none" xmlns="http://www.w3.org/2000/svg">
<g clip-path="url(#clip0_452_3719)">
<path fill-rule="evenodd" clip-rule="evenodd" d="M22 17H10C9.448 17 9 16.55 9 16C9 15.45 9.448 15 10 15H22C22.552 15 23 15.45 23 16C23 16.55 22.552 17 22 17ZM28 0H4C1.791 0 0 1.79 0 4V28C0 30.21 1.791 32 4 32H28C30.209 32 32 30.21 32 28V4C32 1.79 30.209 0 28 0Z" fill="#AECA37"/>
</g>
<defs>
<clipPath id="clip0_452_3719">
<rect width="32" height="32" fill="white"/>
</clipPath>
</defs>
</svg>
