<svg width="20" height="20" viewBox="0 0 20 20" fill="none" xmlns="http://www.w3.org/2000/svg">
<g clip-path="url(#clip0_449_2200)">
<path d="M12.8999 14.32C11.2927 15.5685 9.26991 16.1576 7.24357 15.9671C5.21724 15.7766 3.33967 14.821 1.99318 13.2948C0.646696 11.7686 -0.0674734 9.78661 -0.00390579 7.75234C0.0596618 5.71806 0.896186 3.7845 2.33534 2.34535C3.77449 0.906196 5.70805 0.0696715 7.74233 0.00610398C9.7766 -0.0574636 11.7586 0.656705 13.2848 2.00319C14.811 3.34968 15.7666 5.22725 15.9571 7.25358C16.1475 9.27992 15.5585 11.3027 14.3099 12.91L19.6599 18.24L18.2399 19.66L12.9099 14.32H12.8999ZM7.99994 14C8.78787 14 9.56809 13.8448 10.296 13.5432C11.024 13.2417 11.6854 12.7997 12.2426 12.2426C12.7997 11.6854 13.2417 11.024 13.5432 10.2961C13.8447 9.5681 13.9999 8.78788 13.9999 7.99995C13.9999 7.21202 13.8447 6.43181 13.5432 5.70385C13.2417 4.9759 12.7997 4.31446 12.2426 3.75731C11.6854 3.20016 11.024 2.7582 10.296 2.45667C9.56809 2.15515 8.78787 1.99995 7.99994 1.99995C6.40864 1.99995 4.88252 2.63209 3.7573 3.75731C2.63208 4.88253 1.99994 6.40865 1.99994 7.99995C1.99994 9.59125 2.63208 11.1174 3.7573 12.2426C4.88252 13.3678 6.40864 14 7.99994 14Z" fill="white"/>
</g>
<defs>
<clipPath id="clip0_449_2200">
<rect width="20" height="20" fill="white"/>
</clipPath>
</defs>
</svg>
