<svg width="16" height="16" viewBox="0 0 16 16" fill="none" xmlns="http://www.w3.org/2000/svg">
<path d="M15.4782 2.26087V13.7391C15.4782 14.1217 15.1652 14.4348 14.7826 14.4348H5.72173C5.33912 14.4348 5.04347 14.1217 5.04347 13.7391V10.5565C5.04347 10.1739 5.35651 9.86087 5.73912 9.86087C6.12173 9.86087 6.43477 10.1739 6.43477 10.5565V13.0435H14.0869V2.95652H6.43477V5.44348C6.43477 5.82609 6.12173 6.13913 5.73912 6.13913C5.35651 6.13913 5.04347 5.82609 5.04347 5.44348V2.26087C5.04347 1.87826 5.33912 1.56522 5.72173 1.56522H14.7826C15.1652 1.56522 15.4782 1.87826 15.4782 2.26087ZM8.08695 10.2435C7.80868 10.5217 7.82608 10.9565 8.08695 11.2348C8.22608 11.3739 8.39999 11.4435 8.5739 11.4435C8.74782 11.4435 8.93912 11.3739 9.06086 11.2348L11.7913 8.48696C12.0522 8.2087 12.0522 7.77391 11.7913 7.51304L9.07825 4.73043C8.79999 4.45217 8.36521 4.45217 8.08695 4.73043C7.80868 5.0087 7.80868 5.44348 8.08695 5.72174L9.63477 7.28696L1.21738 7.30435C0.834772 7.30435 0.521729 7.61739 0.521729 8C0.521729 8.38261 0.834772 8.69565 1.21738 8.69565L9.63477 8.67826L8.08695 10.2435Z" fill="white"/>
</svg>
