<svg width="32" height="37" viewBox="0 0 32 37" fill="none" xmlns="http://www.w3.org/2000/svg">
<path d="M32 4.04999V32.5143C32 33.4929 31.2071 34.2786 30.2357 34.2786H22.0786V21.8928H26.2357L26.8571 17.0643H22.0714V13.9786C22.0714 12.5786 22.4571 11.6286 24.4643 11.6286H27.0214V7.30713C26.5786 7.24999 25.0643 7.11428 23.2929 7.11428C19.6071 7.11428 17.0786 9.36428 17.0786 13.5V17.0643H12.9071V21.8928H17.0786V34.2857H1.76429C0.792857 34.2857 0 33.4928 0 32.5214V4.04999C0 3.07856 0.792857 2.28571 1.76429 2.28571H30.2286C31.2071 2.28571 32 3.07856 32 4.04999Z" fill="#9FAF38"/>
</svg>
