<svg width="45" height="32" viewBox="0 0 45 32" fill="none" xmlns="http://www.w3.org/2000/svg">
<g clip-path="url(#clip0_325_123)">
<path fill-rule="evenodd" clip-rule="evenodd" d="M17.8538 21.9011L17.8523 9.11788L30.0108 15.5315L17.8538 21.9011ZM44.55 6.90275C44.55 6.90275 44.1098 3.76773 42.7612 2.38718C41.0498 0.574409 39.1317 0.565862 38.2528 0.46065C31.9556 -6.67572e-06 22.5098 0 22.5098 0H22.4902C22.4902 0 13.0444 -6.67572e-06 6.74719 0.46065C5.86688 0.565862 3.95016 0.574409 2.23735 2.38718C0.888755 3.76773 0.449996 6.90275 0.449996 6.90275C0.449996 6.90275 0 10.5852 0 14.2661V17.7182C0 21.4006 0.449996 25.0816 0.449996 25.0816C0.449996 25.0816 0.888755 28.2166 2.23735 29.5972C3.95016 31.41 6.19874 31.3531 7.19999 31.5422C10.8 31.892 22.5 32 22.5 32C22.5 32 31.9556 31.9858 38.2528 31.5251C39.1317 31.4185 41.0498 31.41 42.7612 29.5972C44.1098 28.2166 44.55 25.0816 44.55 25.0816C44.55 25.0816 45 21.4006 45 17.7182V14.2661C45 10.5852 44.55 6.90275 44.55 6.90275Z" fill="#9FAF38"/>
</g>
<defs>
<clipPath id="clip0_325_123">
<rect width="45" height="32" fill="white"/>
</clipPath>
</defs>
</svg>
