<svg width="38" height="32" viewBox="0 0 38 32" fill="none" xmlns="http://www.w3.org/2000/svg">
<g clip-path="url(#clip0_325_117)">
<path fill-rule="evenodd" clip-rule="evenodd" d="M38 3.78823C36.6037 4.43078 35.1004 4.8653 33.5235 5.05945C35.1339 4.06097 36.3695 2.47772 36.9517 0.591699C35.4439 1.51622 33.7778 2.1888 31.9979 2.54937C30.5793 0.97999 28.5519 0 26.308 0C22.0055 0 18.5149 3.61719 18.5149 8.078C18.5149 8.7113 18.5818 9.32612 18.7156 9.91781C12.2362 9.58036 6.49281 6.36764 2.6453 1.47461C1.97394 2.67186 1.59029 4.06096 1.59029 5.5402C1.59029 8.3415 2.96649 10.8146 5.05864 12.2638C3.78283 12.2245 2.57838 11.857 1.52562 11.2561V11.3554C1.52562 15.2708 4.2133 18.5367 7.782 19.2763C7.12848 19.4658 6.43928 19.5606 5.72777 19.5606C5.22592 19.5606 4.73522 19.512 4.26014 19.4173C5.25268 22.6254 8.12994 24.9621 11.5425 25.0245C8.87491 27.1925 5.51141 28.4845 1.86018 28.4845C1.2312 28.4845 0.60891 28.4475 0 28.3736C3.45049 30.6618 7.55004 32 11.9507 32C26.2924 32 34.1324 19.6923 34.1324 9.01639C34.1324 8.66508 34.1257 8.31376 34.1123 7.96937C35.6357 6.8299 36.9584 5.40846 38 3.78823Z" fill="#9FAF38"/>
</g>
<defs>
<clipPath id="clip0_325_117">
<rect width="38" height="32" fill="white"/>
</clipPath>
</defs>
</svg>
