<svg width="33" height="33" viewBox="0 0 33 33" fill="none" xmlns="http://www.w3.org/2000/svg">
<g clip-path="url(#clip0_325_121)">
<path d="M16.5 12.5216C15.7132 12.5216 14.944 12.755 14.2898 13.1921C13.6355 13.6293 13.1256 14.2506 12.8245 14.9775C12.5234 15.7045 12.4446 16.5044 12.5981 17.2761C12.7516 18.0478 13.1305 18.7567 13.6869 19.3131C14.2433 19.8695 14.9521 20.2484 15.7239 20.4019C16.4956 20.5554 17.2955 20.4766 18.0224 20.1755C18.7494 19.8744 19.3707 19.3645 19.8079 18.7102C20.245 18.056 20.4783 17.2868 20.4783 16.5C20.4783 15.9775 20.3754 15.4602 20.1755 14.9775C19.9756 14.4949 19.6825 14.0563 19.3131 13.6869C18.9437 13.3175 18.5051 13.0244 18.0224 12.8245C17.5398 12.6245 17.0224 12.5216 16.5 12.5216ZM32.4294 8.59144C32.4209 7.35263 32.1928 6.12515 31.7556 4.96602C31.4336 4.11783 30.9354 3.34757 30.2939 2.70605C29.6524 2.06453 28.8821 1.56634 28.034 1.24435C26.8748 0.807161 25.6473 0.579044 24.4085 0.570605C22.3392 0.458313 21.7296 0.458313 16.5 0.458313C11.2704 0.458313 10.6608 0.458313 8.59145 0.570605C7.35265 0.579044 6.12516 0.807161 4.96604 1.24435C4.11785 1.56634 3.34758 2.06453 2.70606 2.70605C2.06454 3.34757 1.56635 4.11783 1.24437 4.96602C0.807176 6.12515 0.579059 7.35263 0.57062 8.59144C0.458328 10.6608 0.458328 11.2704 0.458328 16.5C0.458328 21.7296 0.458328 22.3391 0.57062 24.4085C0.587887 25.6517 0.815695 26.8829 1.24437 28.05C1.56493 28.8943 2.0627 29.6601 2.70416 30.2958C3.34293 30.9412 4.11485 31.4394 4.96604 31.7556C6.12516 32.1928 7.35265 32.4209 8.59145 32.4294C10.6608 32.5416 11.2704 32.5416 16.5 32.5416C21.7296 32.5416 22.3392 32.5416 24.4085 32.4294C25.6473 32.4209 26.8748 32.1928 28.034 31.7556C28.8851 31.4394 29.6571 30.9412 30.2958 30.2958C30.9373 29.6601 31.4351 28.8943 31.7556 28.05C32.1924 26.8852 32.4205 25.6525 32.4294 24.4085C32.5417 22.3391 32.5417 21.7296 32.5417 16.5C32.5417 11.2704 32.5417 10.6608 32.4294 8.59144ZM28.3548 21.4248C28.3033 22.4147 28.092 23.3898 27.7292 24.3123C27.4177 25.0818 26.9548 25.7808 26.3678 26.3678C25.7808 26.9548 25.0818 27.4177 24.3123 27.7291C23.3811 28.0718 22.4006 28.2614 21.4087 28.2906C20.1415 28.2906 19.8046 28.2906 16.5 28.2906C13.1954 28.2906 12.8585 28.2906 11.5912 28.2906C10.5994 28.2614 9.6189 28.0718 8.6877 27.7291C7.8922 27.4335 7.17381 26.9619 6.58625 26.3496C6.005 25.7741 5.55612 25.0789 5.27083 24.3123C4.92683 23.382 4.74243 22.4004 4.72541 21.4087C4.72541 20.1414 4.72541 19.8046 4.72541 16.5C4.72541 13.1954 4.72541 12.8585 4.72541 11.5912C4.74243 10.5996 4.92683 9.61792 5.27083 8.68769C5.56645 7.89219 6.03806 7.1738 6.65041 6.58623C7.22845 6.00813 7.92294 5.55971 8.6877 5.27081C9.6189 4.92817 10.5994 4.73857 11.5912 4.70935C12.8585 4.70935 13.1954 4.70935 16.5 4.70935C19.8046 4.70935 20.1415 4.70935 21.4087 4.70935C22.4006 4.73857 23.3811 4.92817 24.3123 5.27081C25.1078 5.56643 25.8262 6.03804 26.4137 6.6504C26.995 7.22589 27.4439 7.92111 27.7292 8.68769C28.0718 9.61889 28.2614 10.5994 28.2906 11.5912C28.2906 12.8585 28.2906 13.1954 28.2906 16.5C28.2906 19.8046 28.4029 20.1414 28.3548 21.4087V21.4248ZM25.7881 9.48977C25.5971 8.9716 25.296 8.50103 24.9055 8.11053C24.515 7.72003 24.0444 7.41889 23.5262 7.2279C22.8148 6.98127 22.0654 6.86181 21.3125 6.87498C20.0612 6.87498 19.7083 6.87498 16.5 6.87498C13.2917 6.87498 12.9387 6.87498 11.6875 6.87498C10.9308 6.88238 10.1813 7.02358 9.47374 7.29206C8.96351 7.47439 8.49792 7.76323 8.10793 8.13939C7.71794 8.51554 7.41249 8.9704 7.21187 9.47373C6.97891 10.1882 6.8651 10.9361 6.87499 11.6875C6.87499 12.9387 6.87499 13.2916 6.87499 16.5C6.87499 19.7083 6.87499 20.0612 6.87499 21.3125C6.8909 22.0684 7.03183 22.8164 7.29208 23.5262C7.48308 24.0444 7.78421 24.515 8.17471 24.9055C8.56521 25.296 9.03578 25.5971 9.55395 25.7881C10.2384 26.0398 10.9586 26.1806 11.6875 26.2052C12.9387 26.2052 13.2917 26.2052 16.5 26.2052C19.7083 26.2052 20.0612 26.2052 21.3125 26.2052C22.0692 26.1978 22.8187 26.0566 23.5262 25.7881C24.0444 25.5971 24.515 25.296 24.9055 24.9055C25.296 24.515 25.5971 24.0444 25.7881 23.5262C26.0566 22.8187 26.1978 22.0692 26.2052 21.3125C26.2052 20.0612 26.2052 19.7083 26.2052 16.5C26.2052 13.2916 26.2052 12.9387 26.2052 11.6875C26.2057 10.93 26.0642 10.1791 25.7881 9.47373V9.48977ZM16.5 22.6279C15.696 22.6279 14.8999 22.4693 14.1574 22.1611C13.4148 21.853 12.7403 21.4013 12.1726 20.8321C11.6048 20.2629 11.155 19.5872 10.8487 18.8438C10.5425 18.1004 10.386 17.304 10.3881 16.5C10.3881 15.2873 10.7479 14.1019 11.422 13.0938C12.096 12.0858 13.054 11.3003 14.1747 10.837C15.2954 10.3737 16.5283 10.2533 17.7174 10.491C18.9066 10.7288 19.9984 11.314 20.8548 12.1726C21.7112 13.0312 22.2935 14.1246 22.5282 15.3143C22.7628 16.5041 22.6391 17.7367 22.1729 18.8562C21.7066 19.9756 20.9187 20.9316 19.9088 21.603C18.899 22.2744 17.7127 22.6311 16.5 22.6279ZM22.9167 11.5752C22.562 11.5377 22.2339 11.3702 21.9954 11.1051C21.7569 10.84 21.6249 10.4961 21.6249 10.1395C21.6249 9.78286 21.7569 9.43889 21.9954 9.1738C22.2339 8.90871 22.562 8.74127 22.9167 8.70373C23.2713 8.74127 23.5994 8.90871 23.838 9.1738C24.0765 9.43889 24.2084 9.78286 24.2084 10.1395C24.2084 10.4961 24.0765 10.84 23.838 11.1051C23.5994 11.3702 23.2713 11.5377 22.9167 11.5752Z" fill="#9FAF38"/>
</g>
<defs>
<clipPath id="clip0_325_121">
<rect width="33" height="33" fill="white"/>
</clipPath>
</defs>
</svg>
