<svg width="23" height="23" viewBox="0 0 23 23" fill="none" xmlns="http://www.w3.org/2000/svg">
<g clip-path="url(#clip0_325_106)">
<path d="M5.25284 1.90912C5.16798 1.79996 5.06087 1.7101 4.93861 1.64552C4.81635 1.58093 4.68175 1.5431 4.54375 1.53454C4.40575 1.52597 4.26751 1.54687 4.1382 1.59584C4.0089 1.64481 3.89149 1.72073 3.79378 1.81856L2.30741 3.30637C1.61309 4.00212 1.35722 4.98681 1.66053 5.85074C2.91941 9.42665 4.96721 12.6733 7.65203 15.3497C10.3286 18.0345 13.5751 20.0823 17.151 21.3412C18.015 21.6446 18.9997 21.3887 19.6954 20.6944L21.1818 19.208C21.2796 19.1103 21.3555 18.9929 21.4045 18.8636C21.4535 18.7343 21.4744 18.596 21.4658 18.458C21.4572 18.32 21.4194 18.1854 21.3548 18.0632C21.2902 17.9409 21.2004 17.8338 21.0912 17.7489L17.7749 15.1701C17.6583 15.0796 17.5226 15.0168 17.3782 14.9864C17.2338 14.9561 17.0843 14.9589 16.9412 14.9947L13.793 15.781C13.3728 15.886 12.9326 15.8804 12.5152 15.7648C12.0977 15.6492 11.7174 15.4274 11.4111 15.1212L7.88059 11.5892C7.57407 11.2831 7.35206 10.9028 7.23618 10.4854C7.1203 10.068 7.1145 9.62764 7.21934 9.20731L8.00709 6.05918C8.0429 5.916 8.04572 5.76656 8.01534 5.62213C7.98496 5.4777 7.92217 5.34205 7.83172 5.22543L5.25284 1.90912ZM2.70847 0.734681C2.96002 0.483046 3.26223 0.287806 3.59503 0.161926C3.92783 0.036045 4.2836 -0.0175958 4.63872 0.00456512C4.99384 0.026726 5.34018 0.124182 5.65474 0.29046C5.96931 0.456739 6.2449 0.688037 6.46322 0.968994L9.04209 4.28387C9.51503 4.89193 9.68178 5.68399 9.49491 6.43149L8.70859 9.57962C8.66794 9.74267 8.67014 9.91347 8.71497 10.0754C8.7598 10.2374 8.84575 10.385 8.96447 10.5039L12.4964 14.0359C12.6155 14.1548 12.7633 14.2409 12.9256 14.2858C13.0878 14.3306 13.2589 14.3327 13.4222 14.2917L16.5688 13.5054C16.9377 13.4132 17.3228 13.406 17.6948 13.4845C18.0669 13.5629 18.4162 13.7249 18.7165 13.9582L22.0313 16.5371C23.223 17.4643 23.3323 19.2252 22.2657 20.2904L20.7793 21.7768C19.7155 22.8406 18.1257 23.3077 16.6436 22.7859C12.8503 21.4513 9.40617 19.2796 6.56672 16.4322C3.71945 13.5931 1.54784 10.1495 0.212969 6.35674C-0.307406 4.87612 0.159782 3.28481 1.22353 2.22106L2.70991 0.734681H2.70847Z" fill="#23280B"/>
</g>
<defs>
<clipPath id="clip0_325_106">
<rect width="23" height="23" fill="white"/>
</clipPath>
</defs>
</svg>
