<svg width="60" height="60" viewBox="0 0 60 60" fill="none" xmlns="http://www.w3.org/2000/svg">
<g clip-path="url(#clip0_398_1364)">
<path fill-rule="evenodd" clip-rule="evenodd" d="M46 20.1569C44.8242 20.6923 43.5583 21.0544 42.2303 21.2162C43.5864 20.3841 44.627 19.0648 45.1172 17.4931C43.8475 18.2635 42.4445 18.824 40.9456 19.1245C39.751 17.8167 38.0437 17 36.1541 17C32.531 17 29.5915 20.0143 29.5915 23.7317C29.5915 24.2594 29.6478 24.7718 29.7605 25.2648C24.3042 24.9836 19.4676 22.3064 16.2276 18.2288C15.6623 19.2266 15.3392 20.3841 15.3392 21.6168C15.3392 23.9512 16.4981 26.0122 18.2599 27.2198C17.1855 27.1871 16.1713 26.8808 15.2847 26.38V26.4629C15.2847 29.7257 17.548 32.4472 20.5533 33.0636C20.0029 33.2215 19.4226 33.3005 18.8234 33.3005C18.4008 33.3005 17.9876 33.26 17.5875 33.181C18.4233 35.8545 20.8463 37.8017 23.72 37.8537C21.4736 39.6604 18.6412 40.7371 15.5665 40.7371C15.0368 40.7371 14.5128 40.7063 14 40.6446C16.9057 42.5515 20.3579 43.6667 24.0637 43.6667C36.141 43.6667 42.7431 33.4103 42.7431 24.5137C42.7431 24.2209 42.7374 23.9281 42.7262 23.6411C44.009 22.6916 45.1229 21.507 46 20.1569Z" fill="#FAB414"/>
</g>
<rect x="0.5" y="0.5" width="59" height="59" rx="4.5" stroke="#FAB414"/>
<defs>
<clipPath id="clip0_398_1364">
<rect width="32" height="26.6667" fill="white" transform="translate(14 17)"/>
</clipPath>
</defs>
</svg>
