<svg width="16" height="16" viewBox="0 0 16 16" fill="none" xmlns="http://www.w3.org/2000/svg">
<g clip-path="url(#clip0_144_1287)">
<path d="M4 4C4 2.93913 4.42143 1.92172 5.17157 1.17157C5.92172 0.421427 6.93913 0 8 0C9.06087 0 10.0783 0.421427 10.8284 1.17157C11.5786 1.92172 12 2.93913 12 4V5.6C12 6.66087 11.5786 7.67828 10.8284 8.42843C10.0783 9.17857 9.06087 9.6 8 9.6C6.93913 9.6 5.92172 9.17857 5.17157 8.42843C4.42143 7.67828 4 6.66087 4 5.6V4ZM0 13.344C2.43081 11.936 5.19088 11.1963 8 11.2C10.912 11.2 13.648 11.976 16 13.344V16H0V13.344Z" fill="#FAB414"/>
</g>
<defs>
<clipPath id="clip0_144_1287">
<rect width="16" height="16" fill="white"/>
</clipPath>
</defs>
</svg>
