<svg width="92" height="92" viewBox="0 0 92 92" fill="none" xmlns="http://www.w3.org/2000/svg">
<path d="M86.6 41.3H41.8C38.8 41.3 36.4 38.9 36.4 35.9V22.4C36.4 19.4 38.8 17 41.8 17H86.5C89.5 17 91.9 19.4 91.9 22.4V35.9C92 38.9 89.6 41.3 86.6 41.3ZM44.4 33.3H84V25H44.4V33.3ZM86.6 75H41.8C38.8 75 36.4 72.6 36.4 69.6V56.1C36.4 53.1 38.8 50.7 41.8 50.7H86.5C89.5 50.7 91.9 53.1 91.9 56.1V69.6C92 72.6 89.6 75 86.6 75ZM44.4 67H84V58.7H44.4V67ZM23.7 41.3H5.6C2.5 41.3 0 38.8 0 35.7V22.6C0 19.5 2.5 17 5.6 17H23.7C26.8 17 29.3 19.5 29.3 22.6V35.8C29.3 38.8 26.8 41.3 23.7 41.3ZM8 33.3H21.3V25H8V33.3ZM23.7 75H5.6C2.5 75 0 72.5 0 69.4V56.2C0 53.1 2.5 50.6 5.6 50.6H23.7C26.8 50.6 29.3 53.1 29.3 56.2V69.4C29.3 72.5 26.8 75 23.7 75ZM8 67H21.3V58.7H8V67Z" fill="#AECA37"/>
</svg>
