<svg width="14" height="11" viewBox="0 0 14 11" fill="none" xmlns="http://www.w3.org/2000/svg">
<path d="M13.7789 5.87632L9.19211 10.4816C9.04474 10.6289 8.86053 10.7026 8.67632 10.7026C8.4921 10.7026 8.30789 10.6289 8.16053 10.4816C7.86579 10.1868 7.86579 9.72632 8.16053 9.43158L11.4947 6.09737H0.736842C0.331579 6.09737 0 5.76579 0 5.36053C0 4.95526 0.331579 4.62368 0.736842 4.62368H11.4947L8.14211 1.27105C7.84737 0.976315 7.84737 0.51579 8.14211 0.221053C8.43684 -0.0736842 8.89737 -0.0736842 9.19211 0.221053L13.7789 4.82632C14.0737 5.12105 14.0737 5.6 13.7789 5.87632Z" fill="#AECA37"/>
</svg>
