<svg width="40" height="40" viewBox="0 0 40 40" fill="none" xmlns="http://www.w3.org/2000/svg">
<rect width="40" height="40" rx="5" fill="#AECA37"/>
<path d="M14.32 15.112C14.4 13.512 14.96 12.28 16 11.416C17.056 10.536 18.44 10.096 20.152 10.096C21.32 10.096 22.32 10.304 23.152 10.72C23.984 11.12 24.608 11.672 25.024 12.376C25.456 13.064 25.672 13.848 25.672 14.728C25.672 15.736 25.408 16.592 24.88 17.296C24.368 17.984 23.752 18.448 23.032 18.688V18.784C23.96 19.072 24.68 19.584 25.192 20.32C25.72 21.056 25.984 22 25.984 23.152C25.984 24.112 25.76 24.968 25.312 25.72C24.88 26.472 24.232 27.064 23.368 27.496C22.52 27.912 21.496 28.12 20.296 28.12C18.488 28.12 17.016 27.664 15.88 26.752C14.744 25.84 14.144 24.496 14.08 22.72H17.344C17.376 23.504 17.64 24.136 18.136 24.616C18.648 25.08 19.344 25.312 20.224 25.312C21.04 25.312 21.664 25.088 22.096 24.64C22.544 24.176 22.768 23.584 22.768 22.864C22.768 21.904 22.464 21.216 21.856 20.8C21.248 20.384 20.304 20.176 19.024 20.176H18.328V17.416H19.024C21.296 17.416 22.432 16.656 22.432 15.136C22.432 14.448 22.224 13.912 21.808 13.528C21.408 13.144 20.824 12.952 20.056 12.952C19.304 12.952 18.72 13.16 18.304 13.576C17.904 13.976 17.672 14.488 17.608 15.112H14.32Z" fill="white"/>
</svg>
