<svg width="40" height="40" viewBox="0 0 40 40" fill="none" xmlns="http://www.w3.org/2000/svg">
<rect width="40" height="40" rx="5" fill="#AECA37"/>
<path d="M15.328 24.208C16.864 22.928 18.088 21.864 19 21.016C19.912 20.152 20.672 19.256 21.28 18.328C21.888 17.4 22.192 16.488 22.192 15.592C22.192 14.776 22 14.136 21.616 13.672C21.232 13.208 20.64 12.976 19.84 12.976C19.04 12.976 18.424 13.248 17.992 13.792C17.56 14.32 17.336 15.048 17.32 15.976H14.056C14.12 14.056 14.688 12.6 15.76 11.608C16.848 10.616 18.224 10.12 19.888 10.12C21.712 10.12 23.112 10.608 24.088 11.584C25.064 12.544 25.552 13.816 25.552 15.4C25.552 16.648 25.216 17.84 24.544 18.976C23.872 20.112 23.104 21.104 22.24 21.952C21.376 22.784 20.248 23.792 18.856 24.976H25.936V27.76H14.08V25.264L15.328 24.208Z" fill="white"/>
</svg>
