<svg width="47" height="48" viewBox="0 0 47 48" fill="none" xmlns="http://www.w3.org/2000/svg">
<g clip-path="url(#clip0_532_2280)">
<path d="M2.58773 25.8779L10.6478 33.9753C11.5643 34.896 12.8009 35.4228 14.0885 35.435L32.9744 35.6139C35.657 35.6394 37.8194 33.4869 37.8064 30.8042L37.7368 16.4784C37.7238 13.7956 35.5403 11.602 32.8576 11.5766L13.9718 11.3977C12.6841 11.3855 11.4526 11.8889 10.5449 12.7924L2.5681 20.7324C1.14781 22.1354 1.15902 24.4426 2.58773 25.8779ZM13.7434 25.1251C12.7983 26.0658 11.2639 26.0513 10.3096 25.0926C9.35532 24.1339 9.34786 22.5994 10.2929 21.6587C11.238 20.718 12.7724 20.7325 13.7267 21.6912C14.681 22.6499 14.6884 24.1844 13.7434 25.1251Z" fill="#FA4B14" fill-opacity="0.75"/>
<path d="M16.405 21.375V20.439H18.277V27H17.242V21.375H16.405ZM20.4065 23.634C20.4065 22.596 20.5805 21.786 20.9285 21.204C21.2825 20.616 21.8885 20.322 22.7465 20.322C23.6045 20.322 24.2075 20.616 24.5555 21.204C24.9095 21.786 25.0865 22.596 25.0865 23.634C25.0865 24.684 24.9095 25.506 24.5555 26.1C24.2075 26.688 23.6045 26.982 22.7465 26.982C21.8885 26.982 21.2825 26.688 20.9285 26.1C20.5805 25.506 20.4065 24.684 20.4065 23.634ZM24.0785 23.634C24.0785 23.148 24.0455 22.737 23.9795 22.401C23.9195 22.065 23.7935 21.792 23.6015 21.582C23.4095 21.366 23.1245 21.258 22.7465 21.258C22.3685 21.258 22.0835 21.366 21.8915 21.582C21.6995 21.792 21.5705 22.065 21.5045 22.401C21.4445 22.737 21.4145 23.148 21.4145 23.634C21.4145 24.138 21.4445 24.561 21.5045 24.903C21.5645 25.245 21.6905 25.521 21.8825 25.731C22.0805 25.941 22.3685 26.046 22.7465 26.046C23.1245 26.046 23.4095 25.941 23.6015 25.731C23.7995 25.521 23.9285 25.245 23.9885 24.903C24.0485 24.561 24.0785 24.138 24.0785 23.634ZM26.7301 22.023C26.7301 21.585 26.8561 21.243 27.1081 20.997C27.3661 20.745 27.6961 20.619 28.0981 20.619C28.5001 20.619 28.8271 20.745 29.0791 20.997C29.3371 21.243 29.4661 21.585 29.4661 22.023C29.4661 22.461 29.3371 22.806 29.0791 23.058C28.8271 23.31 28.5001 23.436 28.0981 23.436C27.6961 23.436 27.3661 23.31 27.1081 23.058C26.8561 22.806 26.7301 22.461 26.7301 22.023ZM32.2201 20.736L28.6291 27H27.6211L31.2121 20.736H32.2201ZM28.0981 21.24C27.7201 21.24 27.5311 21.501 27.5311 22.023C27.5311 22.551 27.7201 22.815 28.0981 22.815C28.2781 22.815 28.4161 22.752 28.5121 22.626C28.6141 22.494 28.6651 22.293 28.6651 22.023C28.6651 21.501 28.4761 21.24 28.0981 21.24ZM30.3931 25.704C30.3931 25.266 30.5191 24.924 30.7711 24.678C31.0291 24.426 31.3591 24.3 31.7611 24.3C32.1571 24.3 32.4811 24.426 32.7331 24.678C32.9911 24.924 33.1201 25.266 33.1201 25.704C33.1201 26.142 32.9911 26.487 32.7331 26.739C32.4811 26.991 32.1571 27.117 31.7611 27.117C31.3591 27.117 31.0291 26.991 30.7711 26.739C30.5191 26.487 30.3931 26.142 30.3931 25.704ZM31.7521 24.921C31.3741 24.921 31.1851 25.182 31.1851 25.704C31.1851 26.226 31.3741 26.487 31.7521 26.487C32.1301 26.487 32.3191 26.226 32.3191 25.704C32.3191 25.182 32.1301 24.921 31.7521 24.921Z" fill="#FFFEFF"/>
</g>
<defs>
<clipPath id="clip0_532_2280">
<rect width="32.9965" height="33.4728" fill="white" transform="translate(0 23.2781) rotate(-44.8677)"/>
</clipPath>
</defs>
</svg>
