<svg width="47" height="48" viewBox="0 0 47 48" fill="none" xmlns="http://www.w3.org/2000/svg">
<g clip-path="url(#clip0_532_2292)">
<path d="M2.58773 25.8779L10.6478 33.9753C11.5643 34.896 12.8009 35.4228 14.0885 35.435L32.9744 35.6139C35.657 35.6394 37.8194 33.4869 37.8064 30.8042L37.7368 16.4784C37.7238 13.7956 35.5403 11.602 32.8576 11.5766L13.9718 11.3977C12.6841 11.3855 11.4526 11.8889 10.5449 12.7924L2.5681 20.7324C1.14781 22.1354 1.15902 24.4426 2.58773 25.8779ZM13.7434 25.1251C12.7983 26.0658 11.2639 26.0513 10.3096 25.0926C9.35532 24.1339 9.34786 22.5994 10.2929 21.6587C11.238 20.718 12.7724 20.7325 13.7267 21.6912C14.681 22.6499 14.6884 24.1844 13.7434 25.1251Z" fill="#FA4B14" fill-opacity="0.75"/>
<path d="M16.405 21.375V20.439H18.277V27H17.242V21.375H16.405ZM20.2715 21.375V20.439H22.1435V27H21.1085V21.375H20.2715ZM24.111 22.023C24.111 21.585 24.237 21.243 24.489 20.997C24.747 20.745 25.077 20.619 25.479 20.619C25.881 20.619 26.208 20.745 26.46 20.997C26.718 21.243 26.847 21.585 26.847 22.023C26.847 22.461 26.718 22.806 26.46 23.058C26.208 23.31 25.881 23.436 25.479 23.436C25.077 23.436 24.747 23.31 24.489 23.058C24.237 22.806 24.111 22.461 24.111 22.023ZM29.601 20.736L26.01 27H25.002L28.593 20.736H29.601ZM25.479 21.24C25.101 21.24 24.912 21.501 24.912 22.023C24.912 22.551 25.101 22.815 25.479 22.815C25.659 22.815 25.797 22.752 25.893 22.626C25.995 22.494 26.046 22.293 26.046 22.023C26.046 21.501 25.857 21.24 25.479 21.24ZM27.774 25.704C27.774 25.266 27.9 24.924 28.152 24.678C28.41 24.426 28.74 24.3 29.142 24.3C29.538 24.3 29.862 24.426 30.114 24.678C30.372 24.924 30.501 25.266 30.501 25.704C30.501 26.142 30.372 26.487 30.114 26.739C29.862 26.991 29.538 27.117 29.142 27.117C28.74 27.117 28.41 26.991 28.152 26.739C27.9 26.487 27.774 26.142 27.774 25.704ZM29.133 24.921C28.755 24.921 28.566 25.182 28.566 25.704C28.566 26.226 28.755 26.487 29.133 26.487C29.511 26.487 29.7 26.226 29.7 25.704C29.7 25.182 29.511 24.921 29.133 24.921Z" fill="#FFFEFF"/>
</g>
<defs>
<clipPath id="clip0_532_2292">
<rect width="32.9965" height="33.4728" fill="white" transform="translate(0 23.2781) rotate(-44.8677)"/>
</clipPath>
</defs>
</svg>
