<svg width="47" height="48" viewBox="0 0 47 48" fill="none" xmlns="http://www.w3.org/2000/svg">
<g clip-path="url(#clip0_532_2359)">
<path d="M2.58773 25.8778L10.6478 33.9751C11.5643 34.8959 12.8009 35.4227 14.0885 35.4349L32.9744 35.6138C35.657 35.6392 37.8194 33.4868 37.8064 30.8041L37.7368 16.4783C37.7238 13.7955 35.5403 11.6019 32.8576 11.5765L13.9718 11.3976C12.6841 11.3854 11.4526 11.8888 10.5449 12.7922L2.5681 20.7323C1.14781 22.1353 1.15902 24.4424 2.58773 25.8778ZM13.7434 25.125C12.7983 26.0657 11.2639 26.0512 10.3096 25.0925C9.35532 24.1338 9.34786 22.5993 10.2929 21.6586C11.238 20.7179 12.7724 20.7324 13.7267 21.6911C14.681 22.6498 14.6884 24.1843 13.7434 25.125Z" fill="#FA4B14" fill-opacity="0.75"/>
<path d="M16.405 21.375V20.439H18.277V27H17.242V21.375H16.405ZM20.3885 22.059C20.4245 21.501 20.6375 21.066 21.0275 20.754C21.4235 20.442 21.9275 20.286 22.5395 20.286C22.9595 20.286 23.3225 20.361 23.6285 20.511C23.9345 20.661 24.1655 20.865 24.3215 21.123C24.4775 21.381 24.5555 21.672 24.5555 21.996C24.5555 22.368 24.4565 22.686 24.2585 22.95C24.0605 23.214 23.8235 23.391 23.5475 23.481V23.517C23.9015 23.625 24.1775 23.823 24.3755 24.111C24.5735 24.393 24.6725 24.756 24.6725 25.2C24.6725 25.554 24.5915 25.869 24.4295 26.145C24.2675 26.421 24.0275 26.64 23.7095 26.802C23.3915 26.958 23.0105 27.036 22.5665 27.036C21.9185 27.036 21.3845 26.871 20.9645 26.541C20.5505 26.205 20.3285 25.725 20.2985 25.101H21.2885C21.3125 25.419 21.4355 25.68 21.6575 25.884C21.8795 26.082 22.1795 26.181 22.5575 26.181C22.9235 26.181 23.2055 26.082 23.4035 25.884C23.6015 25.68 23.7005 25.419 23.7005 25.101C23.7005 24.681 23.5655 24.384 23.2955 24.21C23.0315 24.03 22.6235 23.94 22.0715 23.94H21.8375V23.094H22.0805C22.5665 23.088 22.9355 23.007 23.1875 22.851C23.4455 22.695 23.5745 22.449 23.5745 22.113C23.5745 21.825 23.4815 21.597 23.2955 21.429C23.1095 21.255 22.8455 21.168 22.5035 21.168C22.1675 21.168 21.9065 21.255 21.7205 21.429C21.5345 21.597 21.4235 21.807 21.3875 22.059H20.3885ZM26.3082 22.023C26.3082 21.585 26.4342 21.243 26.6862 20.997C26.9442 20.745 27.2742 20.619 27.6762 20.619C28.0782 20.619 28.4052 20.745 28.6572 20.997C28.9152 21.243 29.0442 21.585 29.0442 22.023C29.0442 22.461 28.9152 22.806 28.6572 23.058C28.4052 23.31 28.0782 23.436 27.6762 23.436C27.2742 23.436 26.9442 23.31 26.6862 23.058C26.4342 22.806 26.3082 22.461 26.3082 22.023ZM31.7982 20.736L28.2072 27H27.1992L30.7902 20.736H31.7982ZM27.6762 21.24C27.2982 21.24 27.1092 21.501 27.1092 22.023C27.1092 22.551 27.2982 22.815 27.6762 22.815C27.8562 22.815 27.9942 22.752 28.0902 22.626C28.1922 22.494 28.2432 22.293 28.2432 22.023C28.2432 21.501 28.0542 21.24 27.6762 21.24ZM29.9712 25.704C29.9712 25.266 30.0972 24.924 30.3492 24.678C30.6072 24.426 30.9372 24.3 31.3392 24.3C31.7352 24.3 32.0592 24.426 32.3112 24.678C32.5692 24.924 32.6982 25.266 32.6982 25.704C32.6982 26.142 32.5692 26.487 32.3112 26.739C32.0592 26.991 31.7352 27.117 31.3392 27.117C30.9372 27.117 30.6072 26.991 30.3492 26.739C30.0972 26.487 29.9712 26.142 29.9712 25.704ZM31.3302 24.921C30.9522 24.921 30.7632 25.182 30.7632 25.704C30.7632 26.226 30.9522 26.487 31.3302 26.487C31.7082 26.487 31.8972 26.226 31.8972 25.704C31.8972 25.182 31.7082 24.921 31.3302 24.921Z" fill="#FFFEFF"/>
</g>
<defs>
<clipPath id="clip0_532_2359">
<rect width="32.9965" height="33.4728" fill="white" transform="translate(0 23.2781) rotate(-44.8677)"/>
</clipPath>
</defs>
</svg>
