<svg width="47" height="48" viewBox="0 0 47 48" fill="none" xmlns="http://www.w3.org/2000/svg">
<g clip-path="url(#clip0_532_2283)">
<path d="M2.58773 25.8779L10.6478 33.9753C11.5643 34.896 12.8009 35.4228 14.0885 35.435L32.9744 35.6139C35.657 35.6394 37.8194 33.4869 37.8064 30.8042L37.7368 16.4784C37.7238 13.7956 35.5403 11.602 32.8576 11.5766L13.9718 11.3977C12.6841 11.3855 11.4526 11.8889 10.5449 12.7924L2.5681 20.7324C1.14781 22.1354 1.15902 24.4426 2.58773 25.8779ZM13.7434 25.1251C12.7983 26.0658 11.2639 26.0513 10.3096 25.0926C9.35532 24.1339 9.34786 22.5994 10.2929 21.6587C11.238 20.718 12.7724 20.7325 13.7267 21.6912C14.681 22.6499 14.6884 24.1844 13.7434 25.1251Z" fill="#FA4B14" fill-opacity="0.75"/>
<path d="M16.405 21.375V20.439H18.277V27H17.242V21.375H16.405ZM24.6365 21.321H21.6215V23.112C21.7475 22.944 21.9335 22.803 22.1795 22.689C22.4315 22.575 22.6985 22.518 22.9805 22.518C23.4845 22.518 23.8925 22.626 24.2045 22.842C24.5225 23.058 24.7475 23.331 24.8795 23.661C25.0175 23.991 25.0865 24.339 25.0865 24.705C25.0865 25.149 24.9995 25.545 24.8255 25.893C24.6575 26.235 24.4025 26.505 24.0605 26.703C23.7245 26.901 23.3105 27 22.8185 27C22.1645 27 21.6395 26.838 21.2435 26.514C20.8475 26.19 20.6105 25.761 20.5325 25.227H21.5315C21.5975 25.509 21.7445 25.734 21.9725 25.902C22.2005 26.064 22.4855 26.145 22.8275 26.145C23.2535 26.145 23.5715 26.016 23.7815 25.758C23.9975 25.5 24.1055 25.158 24.1055 24.732C24.1055 24.3 23.9975 23.97 23.7815 23.742C23.5655 23.508 23.2475 23.391 22.8275 23.391C22.5335 23.391 22.2845 23.466 22.0805 23.616C21.8825 23.76 21.7385 23.958 21.6485 24.21H20.6765V20.421H24.6365V21.321ZM26.7125 22.023C26.7125 21.585 26.8385 21.243 27.0905 20.997C27.3485 20.745 27.6785 20.619 28.0805 20.619C28.4825 20.619 28.8095 20.745 29.0615 20.997C29.3195 21.243 29.4485 21.585 29.4485 22.023C29.4485 22.461 29.3195 22.806 29.0615 23.058C28.8095 23.31 28.4825 23.436 28.0805 23.436C27.6785 23.436 27.3485 23.31 27.0905 23.058C26.8385 22.806 26.7125 22.461 26.7125 22.023ZM32.2025 20.736L28.6115 27H27.6035L31.1945 20.736H32.2025ZM28.0805 21.24C27.7025 21.24 27.5135 21.501 27.5135 22.023C27.5135 22.551 27.7025 22.815 28.0805 22.815C28.2605 22.815 28.3985 22.752 28.4945 22.626C28.5965 22.494 28.6475 22.293 28.6475 22.023C28.6475 21.501 28.4585 21.24 28.0805 21.24ZM30.3755 25.704C30.3755 25.266 30.5015 24.924 30.7535 24.678C31.0115 24.426 31.3415 24.3 31.7435 24.3C32.1395 24.3 32.4635 24.426 32.7155 24.678C32.9735 24.924 33.1025 25.266 33.1025 25.704C33.1025 26.142 32.9735 26.487 32.7155 26.739C32.4635 26.991 32.1395 27.117 31.7435 27.117C31.3415 27.117 31.0115 26.991 30.7535 26.739C30.5015 26.487 30.3755 26.142 30.3755 25.704ZM31.7345 24.921C31.3565 24.921 31.1675 25.182 31.1675 25.704C31.1675 26.226 31.3565 26.487 31.7345 26.487C32.1125 26.487 32.3015 26.226 32.3015 25.704C32.3015 25.182 32.1125 24.921 31.7345 24.921Z" fill="#FFFEFF"/>
</g>
<defs>
<clipPath id="clip0_532_2283">
<rect width="32.9965" height="33.4728" fill="white" transform="translate(0 23.2781) rotate(-44.8677)"/>
</clipPath>
</defs>
</svg>
