<svg width="47" height="48" viewBox="0 0 47 48" fill="none" xmlns="http://www.w3.org/2000/svg">
<g clip-path="url(#clip0_532_2355)">
<path d="M2.58773 25.8778L10.6478 33.9751C11.5643 34.8959 12.8009 35.4227 14.0885 35.4349L32.9744 35.6138C35.657 35.6392 37.8194 33.4868 37.8064 30.8041L37.7368 16.4783C37.7238 13.7955 35.5403 11.6019 32.8576 11.5765L13.9718 11.3976C12.6841 11.3854 11.4526 11.8888 10.5449 12.7922L2.5681 20.7323C1.14781 22.1353 1.15902 24.4424 2.58773 25.8778ZM13.7434 25.125C12.7983 26.0657 11.2639 26.0512 10.3096 25.0925C9.35532 24.1338 9.34786 22.5993 10.2929 21.6586C11.238 20.7179 12.7724 20.7324 13.7267 21.6911C14.681 22.6498 14.6884 24.1843 13.7434 25.125Z" fill="#FA4B14" fill-opacity="0.75"/>
<path d="M16.405 21.375V20.439H18.277V27H17.242V21.375H16.405ZM23.9345 21.96C23.8685 21.684 23.7485 21.477 23.5745 21.339C23.4005 21.201 23.1575 21.132 22.8455 21.132C22.3715 21.132 22.0175 21.315 21.7835 21.681C21.5495 22.041 21.4265 22.641 21.4145 23.481C21.5705 23.217 21.7985 23.013 22.0985 22.869C22.3985 22.725 22.7225 22.653 23.0705 22.653C23.4665 22.653 23.8145 22.74 24.1145 22.914C24.4205 23.082 24.6575 23.328 24.8255 23.652C24.9995 23.976 25.0865 24.363 25.0865 24.813C25.0865 25.233 25.0025 25.608 24.8345 25.938C24.6725 26.268 24.4295 26.529 24.1055 26.721C23.7815 26.907 23.3915 27 22.9355 27C22.3175 27 21.8315 26.865 21.4775 26.595C21.1295 26.319 20.8835 25.932 20.7395 25.434C20.6015 24.936 20.5325 24.315 20.5325 23.571C20.5325 21.375 21.3065 20.277 22.8545 20.277C23.4545 20.277 23.9255 20.439 24.2675 20.763C24.6155 21.087 24.8195 21.486 24.8795 21.96H23.9345ZM22.8455 23.517C22.4795 23.517 22.1675 23.628 21.9095 23.85C21.6575 24.066 21.5315 24.381 21.5315 24.795C21.5315 25.209 21.6485 25.539 21.8825 25.785C22.1225 26.025 22.4555 26.145 22.8815 26.145C23.2595 26.145 23.5565 26.028 23.7725 25.794C23.9945 25.56 24.1055 25.248 24.1055 24.858C24.1055 24.45 23.9975 24.126 23.7815 23.886C23.5715 23.64 23.2595 23.517 22.8455 23.517ZM26.7389 22.023C26.7389 21.585 26.8649 21.243 27.1169 20.997C27.3749 20.745 27.7049 20.619 28.1069 20.619C28.5089 20.619 28.8359 20.745 29.0879 20.997C29.3459 21.243 29.4749 21.585 29.4749 22.023C29.4749 22.461 29.3459 22.806 29.0879 23.058C28.8359 23.31 28.5089 23.436 28.1069 23.436C27.7049 23.436 27.3749 23.31 27.1169 23.058C26.8649 22.806 26.7389 22.461 26.7389 22.023ZM32.2289 20.736L28.6379 27H27.6299L31.2209 20.736H32.2289ZM28.1069 21.24C27.7289 21.24 27.5399 21.501 27.5399 22.023C27.5399 22.551 27.7289 22.815 28.1069 22.815C28.2869 22.815 28.4249 22.752 28.5209 22.626C28.6229 22.494 28.6739 22.293 28.6739 22.023C28.6739 21.501 28.4849 21.24 28.1069 21.24ZM30.4019 25.704C30.4019 25.266 30.5279 24.924 30.7799 24.678C31.0379 24.426 31.3679 24.3 31.7699 24.3C32.1659 24.3 32.4899 24.426 32.7419 24.678C32.9999 24.924 33.1289 25.266 33.1289 25.704C33.1289 26.142 32.9999 26.487 32.7419 26.739C32.4899 26.991 32.1659 27.117 31.7699 27.117C31.3679 27.117 31.0379 26.991 30.7799 26.739C30.5279 26.487 30.4019 26.142 30.4019 25.704ZM31.7609 24.921C31.3829 24.921 31.1939 25.182 31.1939 25.704C31.1939 26.226 31.3829 26.487 31.7609 26.487C32.1389 26.487 32.3279 26.226 32.3279 25.704C32.3279 25.182 32.1389 24.921 31.7609 24.921Z" fill="#FFFEFF"/>
</g>
<defs>
<clipPath id="clip0_532_2355">
<rect width="32.9965" height="33.4728" fill="white" transform="translate(0 23.2781) rotate(-44.8677)"/>
</clipPath>
</defs>
</svg>
