<svg width="47" height="48" viewBox="0 0 47 48" fill="none" xmlns="http://www.w3.org/2000/svg">
<g clip-path="url(#clip0_532_2289)">
<path d="M2.58773 25.8779L10.6478 33.9753C11.5643 34.896 12.8009 35.4228 14.0885 35.435L32.9744 35.6139C35.657 35.6394 37.8194 33.4869 37.8064 30.8042L37.7368 16.4784C37.7238 13.7956 35.5403 11.602 32.8576 11.5766L13.9718 11.3977C12.6841 11.3855 11.4526 11.8889 10.5449 12.7924L2.5681 20.7324C1.14781 22.1354 1.15902 24.4426 2.58773 25.8779ZM13.7434 25.1251C12.7983 26.0658 11.2639 26.0513 10.3096 25.0926C9.35532 24.1339 9.34786 22.5994 10.2929 21.6587C11.238 20.718 12.7724 20.7325 13.7267 21.6912C14.681 22.6499 14.6884 24.1844 13.7434 25.1251Z" fill="#FA4B14" fill-opacity="0.75"/>
<path d="M16.405 21.375V20.439H18.277V27H17.242V21.375H16.405ZM24.5645 21.231L22.0625 27H21.0275L23.5565 21.339H20.2265V20.466H24.5645V21.231ZM26.0006 22.023C26.0006 21.585 26.1266 21.243 26.3786 20.997C26.6366 20.745 26.9666 20.619 27.3686 20.619C27.7706 20.619 28.0976 20.745 28.3496 20.997C28.6076 21.243 28.7366 21.585 28.7366 22.023C28.7366 22.461 28.6076 22.806 28.3496 23.058C28.0976 23.31 27.7706 23.436 27.3686 23.436C26.9666 23.436 26.6366 23.31 26.3786 23.058C26.1266 22.806 26.0006 22.461 26.0006 22.023ZM31.4906 20.736L27.8996 27H26.8916L30.4826 20.736H31.4906ZM27.3686 21.24C26.9906 21.24 26.8016 21.501 26.8016 22.023C26.8016 22.551 26.9906 22.815 27.3686 22.815C27.5486 22.815 27.6866 22.752 27.7826 22.626C27.8846 22.494 27.9356 22.293 27.9356 22.023C27.9356 21.501 27.7466 21.24 27.3686 21.24ZM29.6636 25.704C29.6636 25.266 29.7896 24.924 30.0416 24.678C30.2996 24.426 30.6296 24.3 31.0316 24.3C31.4276 24.3 31.7516 24.426 32.0036 24.678C32.2616 24.924 32.3906 25.266 32.3906 25.704C32.3906 26.142 32.2616 26.487 32.0036 26.739C31.7516 26.991 31.4276 27.117 31.0316 27.117C30.6296 27.117 30.2996 26.991 30.0416 26.739C29.7896 26.487 29.6636 26.142 29.6636 25.704ZM31.0226 24.921C30.6446 24.921 30.4556 25.182 30.4556 25.704C30.4556 26.226 30.6446 26.487 31.0226 26.487C31.4006 26.487 31.5896 26.226 31.5896 25.704C31.5896 25.182 31.4006 24.921 31.0226 24.921Z" fill="#FFFEFF"/>
</g>
<defs>
<clipPath id="clip0_532_2289">
<rect width="32.9965" height="33.4728" fill="white" transform="translate(0 23.2781) rotate(-44.8677)"/>
</clipPath>
</defs>
</svg>
