<svg width="47" height="48" viewBox="0 0 47 48" fill="none" xmlns="http://www.w3.org/2000/svg">
<g clip-path="url(#clip0_532_2347)">
<path d="M2.58773 25.8778L10.6478 33.9751C11.5643 34.8959 12.8009 35.4227 14.0885 35.4349L32.9744 35.6138C35.657 35.6392 37.8194 33.4868 37.8064 30.8041L37.7368 16.4783C37.7238 13.7955 35.5403 11.6019 32.8576 11.5765L13.9718 11.3976C12.6841 11.3854 11.4526 11.8888 10.5449 12.7922L2.5681 20.7323C1.14781 22.1353 1.15902 24.4424 2.58773 25.8778ZM13.7434 25.125C12.7983 26.0657 11.2639 26.0512 10.3096 25.0925C9.35532 24.1338 9.34786 22.5993 10.2929 21.6586C11.238 20.7179 12.7724 20.7324 13.7267 21.6911C14.681 22.6498 14.6884 24.1843 13.7434 25.125Z" fill="#FA4B14" fill-opacity="0.75"/>
<path d="M18.522 21.059C18.558 20.501 18.771 20.066 19.161 19.754C19.557 19.442 20.061 19.286 20.673 19.286C21.093 19.286 21.456 19.361 21.762 19.511C22.068 19.661 22.299 19.865 22.455 20.123C22.611 20.381 22.689 20.672 22.689 20.996C22.689 21.368 22.59 21.686 22.392 21.95C22.194 22.214 21.957 22.391 21.681 22.481V22.517C22.035 22.625 22.311 22.823 22.509 23.111C22.707 23.393 22.806 23.756 22.806 24.2C22.806 24.554 22.725 24.869 22.563 25.145C22.401 25.421 22.161 25.64 21.843 25.802C21.525 25.958 21.144 26.036 20.7 26.036C20.052 26.036 19.518 25.871 19.098 25.541C18.684 25.205 18.462 24.725 18.432 24.101H19.422C19.446 24.419 19.569 24.68 19.791 24.884C20.013 25.082 20.313 25.181 20.691 25.181C21.057 25.181 21.339 25.082 21.537 24.884C21.735 24.68 21.834 24.419 21.834 24.101C21.834 23.681 21.699 23.384 21.429 23.21C21.165 23.03 20.757 22.94 20.205 22.94H19.971V22.094H20.214C20.7 22.088 21.069 22.007 21.321 21.851C21.579 21.695 21.708 21.449 21.708 21.113C21.708 20.825 21.615 20.597 21.429 20.429C21.243 20.255 20.979 20.168 20.637 20.168C20.301 20.168 20.04 20.255 19.854 20.429C19.668 20.597 19.557 20.807 19.521 21.059H18.522ZM24.4418 21.023C24.4418 20.585 24.5678 20.243 24.8198 19.997C25.0778 19.745 25.4078 19.619 25.8098 19.619C26.2118 19.619 26.5388 19.745 26.7908 19.997C27.0488 20.243 27.1778 20.585 27.1778 21.023C27.1778 21.461 27.0488 21.806 26.7908 22.058C26.5388 22.31 26.2118 22.436 25.8098 22.436C25.4078 22.436 25.0778 22.31 24.8198 22.058C24.5678 21.806 24.4418 21.461 24.4418 21.023ZM29.9318 19.736L26.3408 26H25.3328L28.9238 19.736H29.9318ZM25.8098 20.24C25.4318 20.24 25.2428 20.501 25.2428 21.023C25.2428 21.551 25.4318 21.815 25.8098 21.815C25.9898 21.815 26.1278 21.752 26.2238 21.626C26.3258 21.494 26.3768 21.293 26.3768 21.023C26.3768 20.501 26.1878 20.24 25.8098 20.24ZM28.1048 24.704C28.1048 24.266 28.2308 23.924 28.4828 23.678C28.7408 23.426 29.0708 23.3 29.4728 23.3C29.8688 23.3 30.1928 23.426 30.4448 23.678C30.7028 23.924 30.8318 24.266 30.8318 24.704C30.8318 25.142 30.7028 25.487 30.4448 25.739C30.1928 25.991 29.8688 26.117 29.4728 26.117C29.0708 26.117 28.7408 25.991 28.4828 25.739C28.2308 25.487 28.1048 25.142 28.1048 24.704ZM29.4638 23.921C29.0858 23.921 28.8968 24.182 28.8968 24.704C28.8968 25.226 29.0858 25.487 29.4638 25.487C29.8418 25.487 30.0308 25.226 30.0308 24.704C30.0308 24.182 29.8418 23.921 29.4638 23.921Z" fill="#FFFEFF"/>
</g>
<defs>
<clipPath id="clip0_532_2347">
<rect width="32.9965" height="33.4728" fill="white" transform="translate(0 23.2781) rotate(-44.8677)"/>
</clipPath>
</defs>
</svg>
