<svg width="47" height="48" viewBox="0 0 47 48" fill="none" xmlns="http://www.w3.org/2000/svg">
<g clip-path="url(#clip0_532_2304)">
<path d="M2.58773 25.8779L10.6478 33.9753C11.5643 34.896 12.8009 35.4228 14.0885 35.435L32.9744 35.6139C35.657 35.6394 37.8194 33.4869 37.8064 30.8042L37.7368 16.4784C37.7238 13.7956 35.5403 11.602 32.8576 11.5766L13.9718 11.3977C12.6841 11.3855 11.4526 11.8889 10.5449 12.7924L2.5681 20.7324C1.14781 22.1354 1.15902 24.4426 2.58773 25.8779ZM13.7434 25.1251C12.7983 26.0658 11.2639 26.0513 10.3096 25.0926C9.35532 24.1339 9.34786 22.5994 10.2929 21.6587C11.238 20.718 12.7724 20.7325 13.7267 21.6912C14.681 22.6499 14.6884 24.1844 13.7434 25.1251Z" fill="#FA4B14" fill-opacity="0.75"/>
<path d="M17.414 25.632V24.858L20.438 20.52H21.68V24.741H22.517V25.632H21.68V27H20.672V25.632H17.414ZM20.717 21.564L18.593 24.741H20.717V21.564ZM23.9251 22.023C23.9251 21.585 24.0511 21.243 24.3031 20.997C24.5611 20.745 24.8911 20.619 25.2931 20.619C25.6951 20.619 26.0221 20.745 26.2741 20.997C26.5321 21.243 26.6611 21.585 26.6611 22.023C26.6611 22.461 26.5321 22.806 26.2741 23.058C26.0221 23.31 25.6951 23.436 25.2931 23.436C24.8911 23.436 24.5611 23.31 24.3031 23.058C24.0511 22.806 23.9251 22.461 23.9251 22.023ZM29.4151 20.736L25.8241 27H24.8161L28.4071 20.736H29.4151ZM25.2931 21.24C24.9151 21.24 24.7261 21.501 24.7261 22.023C24.7261 22.551 24.9151 22.815 25.2931 22.815C25.4731 22.815 25.6111 22.752 25.7071 22.626C25.8091 22.494 25.8601 22.293 25.8601 22.023C25.8601 21.501 25.6711 21.24 25.2931 21.24ZM27.5881 25.704C27.5881 25.266 27.7141 24.924 27.9661 24.678C28.2241 24.426 28.5541 24.3 28.9561 24.3C29.3521 24.3 29.6761 24.426 29.9281 24.678C30.1861 24.924 30.3151 25.266 30.3151 25.704C30.3151 26.142 30.1861 26.487 29.9281 26.739C29.6761 26.991 29.3521 27.117 28.9561 27.117C28.5541 27.117 28.2241 26.991 27.9661 26.739C27.7141 26.487 27.5881 26.142 27.5881 25.704ZM28.9471 24.921C28.5691 24.921 28.3801 25.182 28.3801 25.704C28.3801 26.226 28.5691 26.487 28.9471 26.487C29.3251 26.487 29.5141 26.226 29.5141 25.704C29.5141 25.182 29.3251 24.921 28.9471 24.921Z" fill="#FFFEFF"/>
</g>
<defs>
<clipPath id="clip0_532_2304">
<rect width="32.9965" height="33.4728" fill="white" transform="translate(0 23.2781) rotate(-44.8677)"/>
</clipPath>
</defs>
</svg>
