<svg width="47" height="48" viewBox="0 0 47 48" fill="none" xmlns="http://www.w3.org/2000/svg">
<g clip-path="url(#clip0_532_2277)">
<path d="M2.58773 25.8779L10.6478 33.9753C11.5643 34.896 12.8009 35.4228 14.0885 35.435L32.9744 35.6139C35.657 35.6394 37.8194 33.4869 37.8064 30.8042L37.7368 16.4784C37.7238 13.7956 35.5403 11.602 32.8576 11.5766L13.9718 11.3977C12.6841 11.3855 11.4526 11.8889 10.5449 12.7924L2.5681 20.7324C1.14781 22.1354 1.15902 24.4426 2.58773 25.8779ZM13.7434 25.1251C12.7983 26.0658 11.2639 26.0513 10.3096 25.0926C9.35532 24.1339 9.34786 22.5994 10.2929 21.6587C11.238 20.718 12.7724 20.7325 13.7267 21.6912C14.681 22.6499 14.6884 24.1844 13.7434 25.1251Z" fill="#FA4B14" fill-opacity="0.75"/>
<path d="M22.77 20.321H19.755V22.112C19.881 21.944 20.067 21.803 20.313 21.689C20.565 21.575 20.832 21.518 21.114 21.518C21.618 21.518 22.026 21.626 22.338 21.842C22.656 22.058 22.881 22.331 23.013 22.661C23.151 22.991 23.22 23.339 23.22 23.705C23.22 24.149 23.133 24.545 22.959 24.893C22.791 25.235 22.536 25.505 22.194 25.703C21.858 25.901 21.444 26 20.952 26C20.298 26 19.773 25.838 19.377 25.514C18.981 25.19 18.744 24.761 18.666 24.227H19.665C19.731 24.509 19.878 24.734 20.106 24.902C20.334 25.064 20.619 25.145 20.961 25.145C21.387 25.145 21.705 25.016 21.915 24.758C22.131 24.5 22.239 24.158 22.239 23.732C22.239 23.3 22.131 22.97 21.915 22.742C21.699 22.508 21.381 22.391 20.961 22.391C20.667 22.391 20.418 22.466 20.214 22.616C20.016 22.76 19.872 22.958 19.782 23.21H18.81V19.421H22.77V20.321ZM24.846 21.023C24.846 20.585 24.972 20.243 25.224 19.997C25.482 19.745 25.812 19.619 26.214 19.619C26.616 19.619 26.943 19.745 27.195 19.997C27.453 20.243 27.582 20.585 27.582 21.023C27.582 21.461 27.453 21.806 27.195 22.058C26.943 22.31 26.616 22.436 26.214 22.436C25.812 22.436 25.482 22.31 25.224 22.058C24.972 21.806 24.846 21.461 24.846 21.023ZM30.336 19.736L26.745 26H25.737L29.328 19.736H30.336ZM26.214 20.24C25.836 20.24 25.647 20.501 25.647 21.023C25.647 21.551 25.836 21.815 26.214 21.815C26.394 21.815 26.532 21.752 26.628 21.626C26.73 21.494 26.781 21.293 26.781 21.023C26.781 20.501 26.592 20.24 26.214 20.24ZM28.509 24.704C28.509 24.266 28.635 23.924 28.887 23.678C29.145 23.426 29.475 23.3 29.877 23.3C30.273 23.3 30.597 23.426 30.849 23.678C31.107 23.924 31.236 24.266 31.236 24.704C31.236 25.142 31.107 25.487 30.849 25.739C30.597 25.991 30.273 26.117 29.877 26.117C29.475 26.117 29.145 25.991 28.887 25.739C28.635 25.487 28.509 25.142 28.509 24.704ZM29.868 23.921C29.49 23.921 29.301 24.182 29.301 24.704C29.301 25.226 29.49 25.487 29.868 25.487C30.246 25.487 30.435 25.226 30.435 24.704C30.435 24.182 30.246 23.921 29.868 23.921Z" fill="#FFFEFF"/>
</g>
<defs>
<clipPath id="clip0_532_2277">
<rect width="32.9965" height="33.4728" fill="white" transform="translate(0 23.2781) rotate(-44.8677)"/>
</clipPath>
</defs>
</svg>
