<svg width="47" height="48" viewBox="0 0 47 48" fill="none" xmlns="http://www.w3.org/2000/svg">
<g clip-path="url(#clip0_532_2330)">
<path d="M2.58773 25.8778L10.6478 33.9751C11.5643 34.8959 12.8009 35.4227 14.0885 35.4349L32.9744 35.6138C35.657 35.6392 37.8194 33.4868 37.8064 30.8041L37.7368 16.4783C37.7238 13.7955 35.5403 11.6019 32.8576 11.5765L13.9718 11.3976C12.6841 11.3854 11.4526 11.8888 10.5449 12.7922L2.5681 20.7323C1.14781 22.1353 1.15902 24.4424 2.58773 25.8778ZM13.7434 25.125C12.7983 26.0657 11.2639 26.0512 10.3096 25.0925C9.35532 24.1338 9.34786 22.5993 10.2929 21.6586C11.238 20.7179 12.7724 20.7324 13.7267 21.6911C14.681 22.6498 14.6884 24.1843 13.7434 25.125Z" fill="#FA4B14" fill-opacity="0.75"/>
<path d="M22.068 20.96C22.002 20.684 21.882 20.477 21.708 20.339C21.534 20.201 21.291 20.132 20.979 20.132C20.505 20.132 20.151 20.315 19.917 20.681C19.683 21.041 19.56 21.641 19.548 22.481C19.704 22.217 19.932 22.013 20.232 21.869C20.532 21.725 20.856 21.653 21.204 21.653C21.6 21.653 21.948 21.74 22.248 21.914C22.554 22.082 22.791 22.328 22.959 22.652C23.133 22.976 23.22 23.363 23.22 23.813C23.22 24.233 23.136 24.608 22.968 24.938C22.806 25.268 22.563 25.529 22.239 25.721C21.915 25.907 21.525 26 21.069 26C20.451 26 19.965 25.865 19.611 25.595C19.263 25.319 19.017 24.932 18.873 24.434C18.735 23.936 18.666 23.315 18.666 22.571C18.666 20.375 19.44 19.277 20.988 19.277C21.588 19.277 22.059 19.439 22.401 19.763C22.749 20.087 22.953 20.486 23.013 20.96H22.068ZM20.979 22.517C20.613 22.517 20.301 22.628 20.043 22.85C19.791 23.066 19.665 23.381 19.665 23.795C19.665 24.209 19.782 24.539 20.016 24.785C20.256 25.025 20.589 25.145 21.015 25.145C21.393 25.145 21.69 25.028 21.906 24.794C22.128 24.56 22.239 24.248 22.239 23.858C22.239 23.45 22.131 23.126 21.915 22.886C21.705 22.64 21.393 22.517 20.979 22.517ZM24.8724 21.023C24.8724 20.585 24.9984 20.243 25.2504 19.997C25.5084 19.745 25.8384 19.619 26.2404 19.619C26.6424 19.619 26.9694 19.745 27.2214 19.997C27.4794 20.243 27.6084 20.585 27.6084 21.023C27.6084 21.461 27.4794 21.806 27.2214 22.058C26.9694 22.31 26.6424 22.436 26.2404 22.436C25.8384 22.436 25.5084 22.31 25.2504 22.058C24.9984 21.806 24.8724 21.461 24.8724 21.023ZM30.3624 19.736L26.7714 26H25.7634L29.3544 19.736H30.3624ZM26.2404 20.24C25.8624 20.24 25.6734 20.501 25.6734 21.023C25.6734 21.551 25.8624 21.815 26.2404 21.815C26.4204 21.815 26.5584 21.752 26.6544 21.626C26.7564 21.494 26.8074 21.293 26.8074 21.023C26.8074 20.501 26.6184 20.24 26.2404 20.24ZM28.5354 24.704C28.5354 24.266 28.6614 23.924 28.9134 23.678C29.1714 23.426 29.5014 23.3 29.9034 23.3C30.2994 23.3 30.6234 23.426 30.8754 23.678C31.1334 23.924 31.2624 24.266 31.2624 24.704C31.2624 25.142 31.1334 25.487 30.8754 25.739C30.6234 25.991 30.2994 26.117 29.9034 26.117C29.5014 26.117 29.1714 25.991 28.9134 25.739C28.6614 25.487 28.5354 25.142 28.5354 24.704ZM29.8944 23.921C29.5164 23.921 29.3274 24.182 29.3274 24.704C29.3274 25.226 29.5164 25.487 29.8944 25.487C30.2724 25.487 30.4614 25.226 30.4614 24.704C30.4614 24.182 30.2724 23.921 29.8944 23.921Z" fill="#FFFEFF"/>
</g>
<defs>
<clipPath id="clip0_532_2330">
<rect width="32.9965" height="33.4728" fill="white" transform="translate(0 23.2781) rotate(-44.8677)"/>
</clipPath>
</defs>
</svg>
