<svg width="47" height="48" viewBox="0 0 47 48" fill="none" xmlns="http://www.w3.org/2000/svg">
<g clip-path="url(#clip0_532_2311)">
<path d="M2.58773 25.8778L10.6478 33.9751C11.5643 34.8959 12.8009 35.4227 14.0885 35.4349L32.9744 35.6138C35.657 35.6392 37.8194 33.4868 37.8064 30.8041L37.7368 16.4783C37.7238 13.7955 35.5403 11.6019 32.8576 11.5765L13.9718 11.3976C12.6841 11.3854 11.4526 11.8888 10.5449 12.7922L2.5681 20.7323C1.14781 22.1353 1.15902 24.4424 2.58773 25.8778ZM13.7434 25.125C12.7983 26.0657 11.2639 26.0512 10.3096 25.0925C9.35532 24.1338 9.34786 22.5993 10.2929 21.6586C11.238 20.7179 12.7724 20.7324 13.7267 21.6911C14.681 22.6498 14.6884 24.1843 13.7434 25.125Z" fill="#FA4B14" fill-opacity="0.75"/>
<path d="M22.698 21.231L20.196 27H19.161L21.69 21.339H18.36V20.466H22.698V21.231ZM24.1341 22.023C24.1341 21.585 24.2601 21.243 24.5121 20.997C24.7701 20.745 25.1001 20.619 25.5021 20.619C25.9041 20.619 26.2311 20.745 26.4831 20.997C26.7411 21.243 26.8701 21.585 26.8701 22.023C26.8701 22.461 26.7411 22.806 26.4831 23.058C26.2311 23.31 25.9041 23.436 25.5021 23.436C25.1001 23.436 24.7701 23.31 24.5121 23.058C24.2601 22.806 24.1341 22.461 24.1341 22.023ZM29.6241 20.736L26.0331 27H25.0251L28.6161 20.736H29.6241ZM25.5021 21.24C25.1241 21.24 24.9351 21.501 24.9351 22.023C24.9351 22.551 25.1241 22.815 25.5021 22.815C25.6821 22.815 25.8201 22.752 25.9161 22.626C26.0181 22.494 26.0691 22.293 26.0691 22.023C26.0691 21.501 25.8801 21.24 25.5021 21.24ZM27.7971 25.704C27.7971 25.266 27.9231 24.924 28.1751 24.678C28.4331 24.426 28.7631 24.3 29.1651 24.3C29.5611 24.3 29.8851 24.426 30.1371 24.678C30.3951 24.924 30.5241 25.266 30.5241 25.704C30.5241 26.142 30.3951 26.487 30.1371 26.739C29.8851 26.991 29.5611 27.117 29.1651 27.117C28.7631 27.117 28.4331 26.991 28.1751 26.739C27.9231 26.487 27.7971 26.142 27.7971 25.704ZM29.1561 24.921C28.7781 24.921 28.5891 25.182 28.5891 25.704C28.5891 26.226 28.7781 26.487 29.1561 26.487C29.5341 26.487 29.7231 26.226 29.7231 25.704C29.7231 25.182 29.5341 24.921 29.1561 24.921Z" fill="#FFFEFF"/>
</g>
<defs>
<clipPath id="clip0_532_2311">
<rect width="32.9965" height="33.4728" fill="white" transform="translate(0 23.2781) rotate(-44.8677)"/>
</clipPath>
</defs>
</svg>
