<svg width="47" height="48" viewBox="0 0 47 48" fill="none" xmlns="http://www.w3.org/2000/svg">
<g clip-path="url(#clip0_532_2333)">
<path d="M2.58773 25.8778L10.6478 33.9751C11.5643 34.8959 12.8009 35.4227 14.0885 35.4349L32.9744 35.6138C35.657 35.6392 37.8194 33.4868 37.8064 30.8041L37.7368 16.4783C37.7238 13.7955 35.5403 11.6019 32.8576 11.5765L13.9718 11.3976C12.6841 11.3854 11.4526 11.8888 10.5449 12.7922L2.5681 20.7323C1.14781 22.1353 1.15902 24.4424 2.58773 25.8778ZM13.7434 25.125C12.7983 26.0657 11.2639 26.0512 10.3096 25.0925C9.35532 24.1338 9.34786 22.5993 10.2929 21.6586C11.238 20.7179 12.7724 20.7324 13.7267 21.6911C14.681 22.6498 14.6884 24.1843 13.7434 25.125Z" fill="#FA4B14" fill-opacity="0.75"/>
<path d="M19.647 23.571C19.023 23.259 18.711 22.767 18.711 22.095C18.711 21.771 18.792 21.474 18.954 21.204C19.116 20.934 19.359 20.721 19.683 20.565C20.007 20.403 20.403 20.322 20.871 20.322C21.333 20.322 21.726 20.403 22.05 20.565C22.38 20.721 22.626 20.934 22.788 21.204C22.95 21.474 23.031 21.771 23.031 22.095C23.031 22.431 22.944 22.728 22.77 22.986C22.602 23.238 22.377 23.433 22.095 23.571C22.437 23.697 22.707 23.904 22.905 24.192C23.103 24.474 23.202 24.807 23.202 25.191C23.202 25.581 23.103 25.926 22.905 26.226C22.707 26.526 22.431 26.757 22.077 26.919C21.723 27.081 21.321 27.162 20.871 27.162C20.421 27.162 20.019 27.081 19.665 26.919C19.317 26.757 19.044 26.526 18.846 26.226C18.648 25.926 18.549 25.581 18.549 25.191C18.549 24.801 18.648 24.465 18.846 24.183C19.044 23.901 19.311 23.697 19.647 23.571ZM22.05 22.221C22.05 21.885 21.945 21.627 21.735 21.447C21.525 21.267 21.237 21.177 20.871 21.177C20.511 21.177 20.226 21.267 20.016 21.447C19.806 21.627 19.701 21.888 19.701 22.23C19.701 22.53 19.809 22.776 20.025 22.968C20.247 23.154 20.529 23.247 20.871 23.247C21.213 23.247 21.495 23.151 21.717 22.959C21.939 22.767 22.05 22.521 22.05 22.221ZM20.871 24.021C20.475 24.021 20.151 24.12 19.899 24.318C19.653 24.51 19.53 24.789 19.53 25.155C19.53 25.497 19.65 25.776 19.89 25.992C20.13 26.202 20.457 26.307 20.871 26.307C21.279 26.307 21.6 26.199 21.834 25.983C22.074 25.767 22.194 25.491 22.194 25.155C22.194 24.795 22.071 24.516 21.825 24.318C21.585 24.12 21.267 24.021 20.871 24.021ZM24.8373 22.023C24.8373 21.585 24.9633 21.243 25.2153 20.997C25.4733 20.745 25.8033 20.619 26.2053 20.619C26.6073 20.619 26.9343 20.745 27.1863 20.997C27.4443 21.243 27.5733 21.585 27.5733 22.023C27.5733 22.461 27.4443 22.806 27.1863 23.058C26.9343 23.31 26.6073 23.436 26.2053 23.436C25.8033 23.436 25.4733 23.31 25.2153 23.058C24.9633 22.806 24.8373 22.461 24.8373 22.023ZM30.3273 20.736L26.7363 27H25.7283L29.3193 20.736H30.3273ZM26.2053 21.24C25.8273 21.24 25.6383 21.501 25.6383 22.023C25.6383 22.551 25.8273 22.815 26.2053 22.815C26.3853 22.815 26.5233 22.752 26.6193 22.626C26.7213 22.494 26.7723 22.293 26.7723 22.023C26.7723 21.501 26.5833 21.24 26.2053 21.24ZM28.5003 25.704C28.5003 25.266 28.6263 24.924 28.8783 24.678C29.1363 24.426 29.4663 24.3 29.8683 24.3C30.2643 24.3 30.5883 24.426 30.8403 24.678C31.0983 24.924 31.2273 25.266 31.2273 25.704C31.2273 26.142 31.0983 26.487 30.8403 26.739C30.5883 26.991 30.2643 27.117 29.8683 27.117C29.4663 27.117 29.1363 26.991 28.8783 26.739C28.6263 26.487 28.5003 26.142 28.5003 25.704ZM29.8593 24.921C29.4813 24.921 29.2923 25.182 29.2923 25.704C29.2923 26.226 29.4813 26.487 29.8593 26.487C30.2373 26.487 30.4263 26.226 30.4263 25.704C30.4263 25.182 30.2373 24.921 29.8593 24.921Z" fill="#FFFEFF"/>
</g>
<defs>
<clipPath id="clip0_532_2333">
<rect width="32.9965" height="33.4728" fill="white" transform="translate(0 23.2781) rotate(-44.8677)"/>
</clipPath>
</defs>
</svg>
