<svg width="47" height="48" viewBox="0 0 47 48" fill="none" xmlns="http://www.w3.org/2000/svg">
<g clip-path="url(#clip0_532_2308)">
<path d="M2.58773 25.8779L10.6478 33.9753C11.5643 34.896 12.8009 35.4228 14.0885 35.435L32.9744 35.6139C35.657 35.6394 37.8194 33.4869 37.8064 30.8042L37.7368 16.4784C37.7238 13.7956 35.5403 11.602 32.8576 11.5766L13.9718 11.3977C12.6841 11.3855 11.4526 11.8889 10.5449 12.7924L2.5681 20.7324C1.14781 22.1354 1.15902 24.4426 2.58773 25.8779ZM13.7434 25.1251C12.7983 26.0658 11.2639 26.0513 10.3096 25.0926C9.35532 24.1339 9.34786 22.5994 10.2929 21.6587C11.238 20.718 12.7724 20.7325 13.7267 21.6912C14.681 22.6499 14.6884 24.1844 13.7434 25.1251Z" fill="#FA4B14" fill-opacity="0.75"/>
<path d="M17.818 25.218C17.878 25.518 18.007 25.746 18.205 25.902C18.403 26.058 18.67 26.136 19.006 26.136C19.432 26.136 19.744 25.968 19.942 25.632C20.14 25.296 20.239 24.723 20.239 23.913C20.095 24.117 19.891 24.276 19.627 24.39C19.369 24.498 19.087 24.552 18.781 24.552C18.391 24.552 18.037 24.474 17.719 24.318C17.401 24.156 17.149 23.919 16.963 23.607C16.783 23.289 16.693 22.905 16.693 22.455C16.693 21.795 16.885 21.27 17.269 20.88C17.659 20.484 18.193 20.286 18.871 20.286C19.687 20.286 20.266 20.559 20.608 21.105C20.956 21.645 21.13 22.476 21.13 23.598C21.13 24.372 21.064 25.005 20.932 25.497C20.806 25.989 20.584 26.361 20.266 26.613C19.948 26.865 19.507 26.991 18.943 26.991C18.301 26.991 17.806 26.823 17.458 26.487C17.11 26.151 16.915 25.728 16.873 25.218H17.818ZM18.961 23.688C19.321 23.688 19.603 23.577 19.807 23.355C20.017 23.127 20.122 22.827 20.122 22.455C20.122 22.041 20.011 21.72 19.789 21.492C19.573 21.258 19.276 21.141 18.898 21.141C18.52 21.141 18.22 21.261 17.998 21.501C17.782 21.735 17.674 22.044 17.674 22.428C17.674 22.794 17.779 23.097 17.989 23.337C18.205 23.571 18.529 23.688 18.961 23.688ZM22.8109 22.023C22.8109 21.585 22.9369 21.243 23.1889 20.997C23.4469 20.745 23.7769 20.619 24.1789 20.619C24.5809 20.619 24.9079 20.745 25.1599 20.997C25.4179 21.243 25.5469 21.585 25.5469 22.023C25.5469 22.461 25.4179 22.806 25.1599 23.058C24.9079 23.31 24.5809 23.436 24.1789 23.436C23.7769 23.436 23.4469 23.31 23.1889 23.058C22.9369 22.806 22.8109 22.461 22.8109 22.023ZM28.3009 20.736L24.7099 27H23.7019L27.2929 20.736H28.3009ZM24.1789 21.24C23.8009 21.24 23.6119 21.501 23.6119 22.023C23.6119 22.551 23.8009 22.815 24.1789 22.815C24.3589 22.815 24.4969 22.752 24.5929 22.626C24.6949 22.494 24.7459 22.293 24.7459 22.023C24.7459 21.501 24.5569 21.24 24.1789 21.24ZM26.4739 25.704C26.4739 25.266 26.5999 24.924 26.8519 24.678C27.1099 24.426 27.4399 24.3 27.8419 24.3C28.2379 24.3 28.5619 24.426 28.8139 24.678C29.0719 24.924 29.2009 25.266 29.2009 25.704C29.2009 26.142 29.0719 26.487 28.8139 26.739C28.5619 26.991 28.2379 27.117 27.8419 27.117C27.4399 27.117 27.1099 26.991 26.8519 26.739C26.5999 26.487 26.4739 26.142 26.4739 25.704ZM27.8329 24.921C27.4549 24.921 27.2659 25.182 27.2659 25.704C27.2659 26.226 27.4549 26.487 27.8329 26.487C28.2109 26.487 28.3999 26.226 28.3999 25.704C28.3999 25.182 28.2109 24.921 27.8329 24.921Z" fill="#FFFEFF"/>
</g>
<defs>
<clipPath id="clip0_532_2308">
<rect width="32.9965" height="33.4728" fill="white" transform="translate(0 23.2781) rotate(-44.8677)"/>
</clipPath>
</defs>
</svg>
