<svg width="60" height="60" viewBox="0 0 60 60" fill="none" xmlns="http://www.w3.org/2000/svg">
<path d="M25.625 2H34.375C35.8297 2 37 3.14941 37 4.57812V8.875H23V4.57812C23 3.14941 24.1703 2 25.625 2ZM16 18.2959C16 16.6201 16.9844 15.0947 18.5375 14.375L21.2062 13.1504C22.4094 12.6025 23.7219 12.3125 25.0453 12.3125H34.9547C36.2781 12.3125 37.5906 12.6025 38.7937 13.1504L41.4625 14.375C43.0156 15.084 44 16.6094 44 18.2959C44 19.8428 43.1797 21.1963 41.9328 21.959C43.1906 22.9043 44 24.3867 44 26.0625C44 27.8564 43.0703 29.4355 41.6484 30.3594C43.0594 31.2832 44 32.8623 44 34.6562C44 36.4502 43.0703 38.0293 41.6484 38.9531C43.0594 39.877 44 41.4561 44 43.25C44 45.0439 43.0703 46.623 41.6484 47.5469C43.0594 48.4707 44 50.0498 44 51.8438C44 54.6904 41.6484 57 38.75 57H21.25C18.3516 57 16 54.6904 16 51.8438C16 50.0498 16.9297 48.4707 18.3516 47.5469C16.9297 46.623 16 45.0439 16 43.25C16 41.4561 16.9297 39.877 18.3516 38.9531C16.9297 38.0293 16 36.4502 16 34.6562C16 32.8623 16.9297 31.2832 18.3516 30.3594C16.9297 29.4355 16 27.8564 16 26.0625C16 24.3867 16.8094 22.9043 18.0672 21.959C16.8203 21.1963 16 19.8428 16 18.2959ZM23 27.7812C23 28.7266 23.7875 29.5 24.75 29.5H35.25C36.2125 29.5 37 28.7266 37 27.7812C37 26.8359 36.2125 26.0625 35.25 26.0625H24.75C23.7875 26.0625 23 26.8359 23 27.7812ZM24.75 39.8125C23.7875 39.8125 23 40.5859 23 41.5312C23 42.4766 23.7875 43.25 24.75 43.25H35.25C36.2125 43.25 37 42.4766 37 41.5312C37 40.5859 36.2125 39.8125 35.25 39.8125H24.75Z" fill="#AECA37"/>
<path d="M25 2H29.5C25.1 2.4 25 6.83333 25.5 9H23V5.5C23 3.1 24.3333 2.16667 25 2Z" fill="#FAB414"/>
<path d="M18 22C13.2 16.4 19 13.6667 22.5 13C18.1 23.8 20 46.8333 21.5 57C14.5 56 15.5 50 18.5 47.5C14.5 43.5 16.8334 40.1667 18.5 39C14.1 35 16.6667 31.6667 18.5 30.5C14.5 27.3 16.5 23.5 18 22Z" fill="#FAB414"/>
</svg>
