<svg width="60" height="60" viewBox="0 0 60 60" fill="none" xmlns="http://www.w3.org/2000/svg">
<g clip-path="url(#clip0_320_1246)">
<path d="M16.5 5.5C16.5 3.56406 18.0641 2 20 2H41C42.9359 2 44.5 3.56406 44.5 5.5C44.5 7.43594 42.9359 9 41 9H20C18.0641 9 16.5 7.43594 16.5 5.5ZM13 19.5C13 15.6391 16.1391 12.5 20 12.5H41C44.8609 12.5 48 15.6391 48 19.5V51C48 54.8609 44.8609 58 41 58H20C16.1391 58 13 54.8609 13 51V19.5ZM23.5 26.5C21.5641 26.5 20 28.0641 20 30V40.5C20 42.4359 21.5641 44 23.5 44H37.5C39.4359 44 41 42.4359 41 40.5V30C41 28.0641 39.4359 26.5 37.5 26.5H23.5Z" fill="#C2D562"/>
<path d="M16.5 5.49992C16.5 2.29992 21.1667 1.83325 23.5 1.99992C20.3 4.79991 22.1667 7.83326 23.5 8.99994C18.3 9.79994 16.6667 6.99993 16.5 5.49992Z" fill="#FAB414"/>
<path d="M13 20.5C12.6 14.1 18.5 12.5 21.5 12.5C13.5 18.5 16.1667 45.3333 18.5 58C16.1 58 13.8333 55 13 53.5V20.5Z" fill="#FAB414"/>
</g>
<defs>
<clipPath id="clip0_320_1246">
<rect width="35" height="56" fill="white" transform="translate(13 2)"/>
</clipPath>
</defs>
</svg>
