<svg width="60" height="60" viewBox="0 0 60 60" fill="none" xmlns="http://www.w3.org/2000/svg">
<g clip-path="url(#clip0_320_1247)">
<path d="M25.3438 15.3125C28.1904 15.3125 30.5 13.0029 30.5 10.1562C30.5 7.30957 28.1904 5 25.3438 5C22.4971 5 20.1875 7.30957 20.1875 10.1562C20.1875 13.0029 22.4971 15.3125 25.3438 15.3125ZM37.375 32.5C41.167 32.5 44.25 29.417 44.25 25.625C44.25 21.833 41.167 18.75 37.375 18.75C33.583 18.75 30.5 21.833 30.5 25.625C30.5 29.417 33.583 32.5 37.375 32.5ZM47.6875 8.4375C47.6875 6.53613 46.1514 5 44.25 5C42.3486 5 40.8125 6.53613 40.8125 8.4375C40.8125 10.3389 42.3486 11.875 44.25 11.875C46.1514 11.875 47.6875 10.3389 47.6875 8.4375ZM47.6875 25.625C47.6875 28.5898 46.4307 31.2646 44.4219 33.1553C48.3428 34.6162 51.125 38.3867 51.125 42.8125C51.125 48.5059 46.5059 53.125 40.8125 53.125H20.1875C14.4941 53.125 9.875 48.5059 9.875 42.8125C9.875 37.1191 14.4941 32.5 20.1875 32.5H29.6836C28.0508 30.6738 27.0625 28.2676 27.0625 25.625H13.3125C7.61914 25.625 3 30.2441 3 35.9375V49.6875C3 55.3809 7.61914 60 13.3125 60H47.6875C53.3809 60 58 55.3809 58 49.6875V35.9375C58 30.2441 53.3809 25.625 47.6875 25.625ZM20.1875 35.9375C16.3955 35.9375 13.3125 39.0205 13.3125 42.8125C13.3125 46.6045 16.3955 49.6875 20.1875 49.6875H40.8125C44.6045 49.6875 47.6875 46.6045 47.6875 42.8125C47.6875 39.0205 44.6045 35.9375 40.8125 35.9375H37.375H20.1875Z" fill="#AECA37"/>
<path d="M45 5C43 5.16667 39.6 6.6 42 11C42.3334 9.66667 43.4 6.6 45 5Z" fill="#FAB414"/>
<path d="M27.5 5.50012C25 3.50012 16.8 6.80012 22 14.0001C22 12.3335 23.1 8.30012 27.5 5.50012Z" fill="#FAB414"/>
<path d="M3 36.4998C3.8 25.6998 12.6667 24.9998 17 25.9998C-0.6 33.9998 6.66667 51.9998 12.5 59.9998C7.3 59.9998 4 54.3331 3 51.4998V36.4998Z" fill="#FAB414"/>
<path d="M18.5 36.4998C14.5 36.4998 9.7 45.0998 18.5 49.4998C17.3333 46.6664 15.7 40.0998 18.5 36.4998Z" fill="#FAB414"/>
</g>
<defs>
<clipPath id="clip0_320_1247">
<rect width="55" height="55" fill="white" transform="translate(3 5)"/>
</clipPath>
</defs>
</svg>
