<svg width="60" height="60" viewBox="0 0 60 60" fill="none" xmlns="http://www.w3.org/2000/svg">
<g clip-path="url(#clip0_320_1249)">
<g clip-path="url(#clip1_320_1249)">
<path d="M30 9.31006C22.75 9.31006 1 12.9253 1 27.3863C1 31.3744 4.25117 34.6168 8.25 34.6168V54.5008C8.25 57.4946 10.6855 59.9236 13.6875 59.9236H46.3125C49.3145 59.9236 51.75 57.4946 51.75 54.5008V34.6168C55.7488 34.6168 59 31.3744 59 27.3863C59 12.9253 37.25 9.31006 30 9.31006Z" fill="#AECA37"/>
<path d="M3.48571 19.7423C9.45142 12.1399 22.2667 9.9639 27.9286 9.82617C8.04282 14.7842 12.7381 45.2212 17.5715 59.82C11.9372 60.8116 9.14763 57.7541 8.45714 56.1014V34.6165C-1.81715 32.3027 0.861898 23.7363 3.48571 19.7423Z" fill="#FAB414"/>
</g>
</g>
<defs>
<clipPath id="clip0_320_1249">
<rect width="60" height="60" fill="white"/>
</clipPath>
<clipPath id="clip1_320_1249">
<rect width="58" height="51.2333" fill="white" transform="translate(1 9)"/>
</clipPath>
</defs>
</svg>
