<svg width="60" height="60" viewBox="0 0 60 60" fill="none" xmlns="http://www.w3.org/2000/svg">
<g clip-path="url(#clip0_320_1250)">
<path d="M59 32.7013V34.5H1C1 32.2232 2.13281 30.0944 4.01328 28.8308L32.141 9.9904C33.1152 9.34152 34.248 9 35.4148 9C48.4422 9 59 19.6098 59 32.7013ZM59 38.1429V52.7143C59 56.7328 55.7488 60 51.75 60H8.25C4.25117 60 1 56.7328 1 52.7143V38.1429H59Z" fill="#AECA37"/>
<path d="M31.3594 10.8214C33.8969 8.27136 37.25 8.84814 38.6094 9.45529C27.0094 14.5553 12.6302 28.2767 6.89062 34.4999H1C1 32.6785 2.51042 30.4017 3.26562 29.491L31.3594 10.8214Z" fill="#FAB414"/>
<path d="M1 53.6249V38.5981L8.70312 38.1428C5.07812 41.0571 6.89062 53.9285 8.25 59.9999C3.5375 59.6356 1.45312 55.5981 1 53.6249Z" fill="#FAB414"/>
</g>
<defs>
<clipPath id="clip0_320_1250">
<rect width="58" height="51" fill="white" transform="translate(1 9)"/>
</clipPath>
</defs>
</svg>
