<svg width="60" height="60" viewBox="0 0 60 60" fill="none" xmlns="http://www.w3.org/2000/svg">
<g clip-path="url(#clip0_320_1206)">
<path d="M30 14C29.0571 14 28.2857 13.2286 28.2857 12.2857V10.5714C28.2857 5.83571 32.1214 2 36.8571 2H38.5714C39.5143 2 40.2857 2.77143 40.2857 3.71429V5.42857C40.2857 10.1643 36.45 14 31.7143 14H30ZM6 32.8571C6 24.6821 9.825 15.7143 18 15.7143C20.925 15.7143 24.3964 16.8179 26.8607 17.7821C28.875 18.5643 31.1357 18.5643 33.15 17.7821C35.6036 16.8286 39.0857 15.7143 42.0107 15.7143C50.1857 15.7143 54.0107 24.6821 54.0107 32.8571C54.0107 46.5714 45.4393 56.8571 36.8679 56.8571C35.1 56.8571 32.7857 56.15 31.35 55.6464C30.4821 55.3464 29.5393 55.3464 28.6714 55.6464C27.2357 56.15 24.9214 56.8571 23.1536 56.8571C14.5714 56.8571 6 46.5714 6 32.8571Z" fill="#AECA37"/>
<path d="M28.2979 12.733C27.9007 9.38248 29.0128 2.57928 36.6383 2.17041C35.9007 5.0666 33.2 11.2338 28.2979 12.733Z" fill="#FAB414"/>
<path d="M14.8511 16.481C4.46808 19.8882 2.59574 40.1615 12.9787 52.087C11.0194 49.5316 2.25532 25.851 14.8511 16.481Z" fill="#FAB414"/>
</g>
<defs>
<clipPath id="clip0_320_1206">
<rect width="49" height="55" fill="white" transform="translate(6 2)"/>
</clipPath>
</defs>
</svg>
