<svg width="60" height="60" viewBox="0 0 60 60" fill="none" xmlns="http://www.w3.org/2000/svg">
<g clip-path="url(#clip0_320_1245)">
<path d="M46.2746 2.13314C47.4801 1.78939 48.7718 2.1224 49.6544 3.00326L54.7565 8.09506L51.9041 8.94369C45.661 10.7269 41.3447 13.1976 37.9541 16.1839C34.5957 19.138 32.2277 22.5326 29.8704 25.9486L29.6228 26.3031C25.0051 33.0169 19.9891 40.3109 6.83566 46.8744L3.07907 48.7542L0.0113583 45.682C-0.774406 44.8978 -1.12961 43.7913 -0.957392 42.6956C-0.78517 41.5999 -0.0855166 40.6654 0.904761 40.1712C13.6492 33.8226 18.4714 26.8187 23.0353 20.1908L23.2829 19.8255C25.6294 16.4095 28.1159 12.8538 31.6464 9.73861C35.2416 6.56967 39.8055 3.9808 46.2746 2.13314ZM5.65164 51.3109L8.38566 49.9466C22.3249 42.9964 27.7499 35.1117 32.4753 28.2474L32.7121 27.8929C35.0909 24.4447 37.2437 21.3939 40.236 18.7513C43.1961 16.141 47.0603 13.8958 52.8621 12.2415L52.8836 12.2308L57.5228 10.8451L59.9985 13.3158C60.8596 14.1751 61.2041 15.432 60.8919 16.6136C60.5798 17.7953 59.6756 18.7191 58.5023 19.0521C52.9159 20.6419 49.2884 22.7796 46.5437 25.1966C43.7343 27.6673 41.6891 30.557 39.2996 34.016L39.0628 34.3597C34.2836 41.3099 28.6541 49.4847 14.3166 56.639C12.9926 57.305 11.3888 57.0365 10.3447 55.9945L5.65164 51.3109Z" fill="#AECA37"/>
<path d="M45 2.49977C47.4 1.69977 49.6667 2.8331 50.5 3.49977C40.9 4.29977 30.5 15.8331 26.5 21.4998C21.3 33.0998 6.66667 41.9998 8.04663e-06 44.9998C-2.39999 42.1998 0.333341 40.1664 2.00001 39.4998C10.8 37.0998 20.3333 24.8331 24 18.9998C30.4 8.99976 40.6667 3.8331 45 2.49977Z" fill="#FAB414"/>
<path d="M6 51.5L8.5 54C26 42 28.6667 35.6667 31.5 30C30.3 31.6 26 36.6667 24 39C19.2 44.2 10 49.5 6 51.5Z" fill="#FAB414"/>
</g>
<defs>
<clipPath id="clip0_320_1245">
<rect width="60" height="60" fill="white"/>
</clipPath>
</defs>
</svg>
