<svg width="60" height="60" viewBox="0 0 60 60" fill="none" xmlns="http://www.w3.org/2000/svg">
<g clip-path="url(#clip0_320_1248)">
<g clip-path="url(#clip1_320_1248)">
<path d="M11.25 3.75V15H26.25V3.75C26.25 1.67578 24.5742 0 22.5 0H15C12.9258 0 11.25 1.67578 11.25 3.75ZM11.25 18.75C5.03906 18.75 0 23.7891 0 30V54.375C0 57.4805 2.51953 60 5.625 60H31.875C34.9805 60 37.5 57.4805 37.5 54.375V30C37.5 23.7891 32.4609 18.75 26.25 18.75H11.25ZM18.75 48.75C13.5703 48.75 9.375 44.5547 9.375 39.375C9.375 34.1953 13.5703 30 18.75 30C23.9297 30 28.125 34.1953 28.125 39.375C28.125 44.5547 23.9297 48.75 18.75 48.75ZM45 5.625C45 5.46094 44.8828 5.27344 44.7422 5.20312L41.25 3.75L39.7969 0.257812C39.7266 0.117188 39.5391 0 39.375 0C39.2109 0 39.0234 0.117188 38.9531 0.257812L37.5 3.75L34.0078 5.20312C33.8672 5.27344 33.75 5.46094 33.75 5.625C33.75 5.78906 33.8672 5.97656 34.0078 6.04688L37.5 7.5L38.9531 10.9922C39.0234 11.1328 39.2109 11.25 39.375 11.25C39.5391 11.25 39.7266 11.1328 39.7969 10.9922L41.25 7.5L44.7422 6.04688C44.8828 5.97656 45 5.78906 45 5.625ZM53.9531 10.9922C54.0234 11.1328 54.2109 11.25 54.375 11.25C54.5391 11.25 54.7266 11.1328 54.7969 10.9922L56.25 7.5L59.7422 6.04688C59.8828 5.97656 60 5.78906 60 5.625C60 5.46094 59.8828 5.27344 59.7422 5.20312L56.25 3.75L54.7969 0.257812C54.7266 0.117188 54.5391 0 54.375 0C54.2109 0 54.0234 0.117188 53.9531 0.257812L52.5 3.75L49.0078 5.20312C48.8672 5.27344 48.75 5.46094 48.75 5.625C48.75 5.78906 48.8672 5.97656 49.0078 6.04688L52.5 7.5L53.9531 10.9922ZM54.7969 22.7578C54.7266 22.6172 54.5391 22.5 54.375 22.5C54.2109 22.5 54.0234 22.6172 53.9531 22.7578L52.5 26.25L49.0078 27.7031C48.8672 27.7734 48.75 27.9609 48.75 28.125C48.75 28.2891 48.8672 28.4766 49.0078 28.5469L52.5 30L53.9531 33.4922C54.0234 33.6328 54.2109 33.75 54.375 33.75C54.5391 33.75 54.7266 33.6328 54.7969 33.4922L56.25 30L59.7422 28.5469C59.8828 28.4766 60 28.2891 60 28.125C60 27.9609 59.8828 27.7734 59.7422 27.7031L56.25 26.25L54.7969 22.7578ZM52.5 16.875C52.5 16.7109 52.3828 16.5234 52.2422 16.4531L48.75 15L47.2969 11.5078C47.2266 11.3672 47.0391 11.25 46.875 11.25C46.7109 11.25 46.5234 11.3672 46.4531 11.5078L45 15L41.5078 16.4531C41.3672 16.5234 41.25 16.7109 41.25 16.875C41.25 17.0391 41.3672 17.2266 41.5078 17.2969L45 18.75L46.4531 22.2422C46.5234 22.3828 46.7109 22.5 46.875 22.5C47.0391 22.5 47.2266 22.3828 47.2969 22.2422L48.75 18.75L52.2422 17.2969C52.3828 17.2266 52.5 17.0391 52.5 16.875Z" fill="#AECA37"/>
<path d="M11.5 3.99983C11.1 0.399828 15.6667 -0.166839 18 -0.000171898C14.8 1.99979 16 10.8332 17 14.9999H11.5V3.99983Z" fill="#FAB414"/>
<path d="M3.50003 22.5C6.30003 18.5 12.3334 18.5 15 19C1.4 22.6 4.66671 47.8334 8.00006 60.0001C4.00006 60.8001 1.00004 58.0001 2.7746e-05 56.5001V40.5001C-0.799972 26.1001 2.00003 22.5 3.50003 22.5Z" fill="#FAB414"/>
<path d="M37.5 4L39 0C40.2 2.4 38.5 6 37.5 7.5L34 5.5L37.5 4Z" fill="#FAB414"/>
<path d="M52.5 4L54 0C55.2 2.4 53.5 6 52.5 7.5L49 5.5L52.5 4Z" fill="#FAB414"/>
<path d="M45 15L46.5 11.5C47.3 14.3 45.8333 17.3333 45 18.5L42 17.5C41.2 17.1 41.3334 16.6667 41.5 16.5L45 15Z" fill="#FAB414"/>
</g>
</g>
<defs>
<clipPath id="clip0_320_1248">
<rect width="60" height="60" fill="white"/>
</clipPath>
<clipPath id="clip1_320_1248">
<rect width="60" height="60" fill="white"/>
</clipPath>
</defs>
</svg>
