<svg width="60" height="60" viewBox="0 0 60 60" fill="none" xmlns="http://www.w3.org/2000/svg">
<path d="M28.9687 1.99226C26.3789 1.62898 23.7422 2.09773 21.4219 3.3282L12.75 7.95711C10.4414 9.18758 8.57813 11.1212 7.42969 13.4766L3.12891 22.336C1.98047 24.6915 1.60547 27.3634 2.0625 29.9415L3.76172 39.6446C4.21875 42.2345 5.47266 44.6016 7.35938 46.4298L14.4258 53.2735C16.3125 55.1016 18.7148 56.2735 21.3047 56.6368L31.0312 58.0079C33.6211 58.3712 36.2578 57.9024 38.5781 56.672L47.25 52.043C49.5586 50.8126 51.4219 48.879 52.5703 46.5118L56.8711 37.6641C58.0195 35.3087 58.3945 32.6368 57.9375 30.0587L56.2266 20.3555C55.7695 17.7657 54.5156 15.3985 52.6289 13.5704L45.5742 6.73836C43.6875 4.91023 41.2852 3.73836 38.6953 3.37507L28.9687 1.99226ZM24.375 24.3751C22.3008 24.3751 20.625 22.6993 20.625 20.6251C20.625 18.5509 22.3008 16.8751 24.375 16.8751C26.4492 16.8751 28.125 18.5509 28.125 20.6251C28.125 22.6993 26.4492 24.3751 24.375 24.3751ZM24.375 39.3751C24.375 41.4493 22.6992 43.1251 20.625 43.1251C18.5508 43.1251 16.875 41.4493 16.875 39.3751C16.875 37.3009 18.5508 35.6251 20.625 35.6251C22.6992 35.6251 24.375 37.3009 24.375 39.3751ZM43.125 39.3751C41.0508 39.3751 39.375 37.6993 39.375 35.6251C39.375 33.5509 41.0508 31.8751 43.125 31.8751C45.1992 31.8751 46.875 33.5509 46.875 35.6251C46.875 37.6993 45.1992 39.3751 43.125 39.3751Z" fill="#AECA37"/>
<path d="M8.03571 12.3212C9.75 8.89265 15.5357 6.24979 18.2143 5.35693C2.67857 13.9284 5.35714 43.9284 4.82142 42.8569C4.39285 41.9998 3.57142 37.1426 3.21428 34.8212C2.35714 32.2498 2.14285 27.3212 2.14285 25.1784L8.03571 12.3212Z" fill="#FAB414"/>
<path d="M24.0798 16.5794C24.2997 16.549 24.4924 16.5569 24.6428 16.607C24.4506 16.5933 24.2629 16.5841 24.0798 16.5794C21.9496 16.8736 17.259 20.7582 23.5714 24.6427C16.7857 22.5548 17.1203 16.3981 24.0798 16.5794Z" fill="#FAB414"/>
<path d="M20.4135 35.3748C20.6335 35.3444 20.8261 35.3523 20.9766 35.4024C20.7843 35.3887 20.5966 35.3795 20.4135 35.3748C18.2833 35.669 13.5927 39.5536 19.9051 43.4382C13.1194 41.3502 13.454 35.1935 20.4135 35.3748Z" fill="#FAB414"/>
<path d="M43.3543 31.5791C43.5819 31.549 43.7786 31.557 43.9286 31.607C43.7328 31.593 43.5413 31.5838 43.3543 31.5791C41.1428 31.8713 36.0071 35.757 42.3214 39.6428C35.539 37.5559 36.3781 31.4041 43.3543 31.5791Z" fill="#FAB414"/>
</svg>
