<svg width="60" height="61" viewBox="0 0 60 61" fill="none" xmlns="http://www.w3.org/2000/svg">
<path d="M39.2439 2.64453C38.2664 3.82617 36.3758 6.54395 36.3758 9.73438C36.3758 14.0312 38.0193 15.6748 40.6726 18.3281C43.326 20.9814 44.9695 22.625 49.2664 22.625C52.4568 22.625 55.1746 20.7344 56.3562 19.7568C56.7859 19.4023 57.0008 18.876 57.0008 18.3281C57.0008 17.7803 56.7859 17.2539 56.3562 16.9102C55.1316 15.9326 52.242 14.0312 48.407 14.0312C44.9695 14.0312 44.1101 14.8906 44.1101 14.8906C44.1101 14.8906 44.9695 14.0312 44.9695 10.5938C44.9695 6.75879 43.0681 3.86914 42.0906 2.64453C41.7469 2.21484 41.2205 2 40.6726 2C40.1248 2 39.5984 2.21484 39.2439 2.64453ZM28.2761 16.6094C23.9793 16.6094 19.9939 18.5537 17.3513 21.7871L23.8504 28.2861C24.5164 28.9521 24.5164 30.0478 23.8504 30.7139C23.1844 31.3799 22.0886 31.3799 21.4226 30.7139L15.4822 24.7734V24.7842L2.23709 53.3369C1.78591 54.3145 1.99001 55.4746 2.75271 56.248C3.51541 57.0215 4.67556 57.2148 5.66384 56.7637L20.1336 50.0605L14.5369 44.4639C13.8709 43.7979 13.8709 42.7021 14.5369 42.0361C15.2029 41.3701 16.2986 41.3701 16.9646 42.0361L23.4529 48.5137L34.2166 43.5293C39.201 41.2197 42.4021 36.2246 42.4021 30.7246C42.3914 22.9258 36.075 16.6094 28.2761 16.6094Z" fill="#AECA37"/>
<path d="M38 15.5C36.6667 13.3333 35.1 7.7 39.5 2.5C40.5 4.66667 41.6 10.3 38 15.5Z" fill="#FAB414"/>
<path d="M19.5 23.9998C23.1 19.9998 28.3333 17.6664 30.5 16.9998C24.13 15.4073 19.2129 19.6266 17.5236 21.9669L19.5 23.9998Z" fill="#FAB414"/>
<path d="M2 53.9998L15.5 24.9998L17 26.4998C15.4 30.4998 6.66667 47.4998 2.5 55.4998C2.1 54.6998 2 54.1664 2 53.9998Z" fill="#FAB414"/>
</svg>
